Varta-Bold.ufo
<glyph name="dotlessi" format="2">
  <advance width="527.0"/>
  <unicode hex="0131"/>
  <anchor x="264.0" y="0.0" name="bottom"/>
  <anchor x="474.0" y="10.0" name="ogonek"/>
  <anchor x="264.0" y="1003.0" name="top"/>
  <outline>
    <contour>
      <point x="155.0" y="0.0" type="line"/>
      <point x="373.0" y="0.0" type="line"/>
      <point x="373.0" y="1003.0" type="line"/>
      <point x="155.0" y="1003.0" type="line"/>
    </contour>
  </outline>
</glyph>
<glyph name="dotlessj" format="2">
  <advance width="532.0"/>
  <unicode hex="0237"/>
  <anchor x="266.0" y="-1068.0" name="bottom"/>
  <anchor x="266.0" y="1003.0" name="top"/>
  <outline>
    <contour>
      <point x="69.0" y="-426.0" type="curve" smooth="yes"/>
      <point x="299.0" y="-426.0"/>
      <point x="378.0" y="-274.0"/>
      <point x="378.0" y="-64.0" type="curve"/>
      <point x="378.0" y="1004.0" type="line"/>
      <point x="156.0" y="1004.0" type="line"/>
      <point x="156.0" y="-67.0" type="line" smooth="yes"/>
      <point x="156.0" y="-184.0"/>
      <point x="130.0" y="-249.0"/>
      <point x="40.0" y="-249.0" type="curve" smooth="yes"/>
      <point x="7.0" y="-249.0"/>
      <point x="-24.0" y="-242.0"/>
      <point x="-49.0" y="-234.0" type="curve"/>
      <point x="-91.0" y="-399.0" type="line"/>
      <point x="-54.0" y="-414.0"/>
      <point x="-2.0" y="-426.0"/>
    </contour>
  </outline>
</glyph>
<glyph name="macroncomb" format="2">
  <unicode hex="0304"/>
  <anchor x="561.0" y="1003.0" name="_top"/>
  <anchor x="561.0" y="1369.0" name="top"/>
  <outline>
    <contour>
      <point x="298.0" y="1224.0" type="line"/>
      <point x="824.0" y="1224.0" type="line"/>
      <point x="824.0" y="1369.0" type="line"/>
      <point x="298.0" y="1369.0" type="line"/>
    </contour>
  </outline>
</glyph>
<glyph name="dotaccentcomb" format="2">
  <unicode hex="0307"/>
  <anchor x="142.0" y="1003.0" name="_top"/>
  <anchor x="142.0" y="1444.0" name="top"/>
  <outline>
    <contour>
      <point x="142.0" y="1187.0" type="curve" smooth="yes"/>
      <point x="218.0" y="1187.0"/>
      <point x="274.0" y="1240.0"/>
      <point x="274.0" y="1316.0" type="curve" smooth="yes"/>
      <point x="274.0" y="1390.0"/>
      <point x="218.0" y="1444.0"/>
      <point x="142.0" y="1444.0" type="curve" smooth="yes"/>
      <point x="66.0" y="1444.0"/>
      <point x="10.0" y="1390.0"/>
      <point x="10.0" y="1316.0" type="curve" smooth="yes"/>
      <point x="10.0" y="1240.0"/>
      <point x="66.0" y="1187.0"/>
    </contour>
  </outline>
</glyph>
<glyph name="dieresiscomb" format="2">
  <unicode hex="0308"/>
  <anchor x="560.5" y="1003.0" name="_top"/>
  <anchor x="561.0" y="1254.0" name="top"/>
  <outline>
    <contour>
      <point x="374.0" y="1121.0" type="curve" smooth="yes"/>
      <point x="442.0" y="1121.0"/>
      <point x="490.0" y="1171.0"/>
      <point x="490.0" y="1238.0" type="curve" smooth="yes"/>
      <point x="490.0" y="1304.0"/>
      <point x="442.0" y="1354.0"/>
      <point x="374.0" y="1354.0" type="curve" smooth="yes"/>
      <point x="306.0" y="1354.0"/>
      <point x="258.0" y="1304.0"/>
      <point x="258.0" y="1238.0" type="curve" smooth="yes"/>
      <point x="258.0" y="1171.0"/>
      <point x="306.0" y="1121.0"/>
    </contour>
    <contour>
      <point x="747.0" y="1121.0" type="curve" smooth="yes"/>
      <point x="816.0" y="1121.0"/>
      <point x="863.0" y="1171.0"/>
      <point x="863.0" y="1238.0" type="curve" smooth="yes"/>
      <point x="863.0" y="1304.0"/>
      <point x="816.0" y="1354.0"/>
      <point x="747.0" y="1354.0" type="curve" smooth="yes"/>
      <point x="679.0" y="1354.0"/>
      <point x="631.0" y="1304.0"/>
      <point x="631.0" y="1238.0" type="curve" smooth="yes"/>
      <point x="631.0" y="1171.0"/>
      <point x="679.0" y="1121.0"/>
    </contour>
  </outline>
</glyph>
<glyph name="hungarumlautcomb" format="2">
  <unicode hex="030B"/>
  <anchor x="571.0" y="1003.0" name="_top"/>
  <anchor x="660.5" y="1470.0" name="top"/>
  <outline>
    <contour>
      <point x="338.0" y="1171.0" type="line"/>
      <point x="478.0" y="1171.0" type="line"/>
      <point x="664.0" y="1470.0" type="line"/>
      <point x="482.0" y="1470.0" type="line"/>
    </contour>
    <contour>
      <point x="658.0" y="1171.0" type="line"/>
      <point x="798.0" y="1171.0" type="line"/>
      <point x="983.0" y="1470.0" type="line"/>
      <point x="802.0" y="1470.0" type="line"/>
    </contour>
  </outline>
</glyph>
<glyph name="eLongCandra-deva" format="2">
  <unicode hex="0955"/>
  <anchor x="388.0" y="1287.0" name="_top"/>
  <outline>
    <contour>
      <point x="424.0" y="1725.0" type="curve" smooth="yes"/>
      <point x="563.0" y="1725.0"/>
      <point x="678.0" y="1779.0"/>
      <point x="771.0" y="1865.0" type="curve"/>
      <point x="678.0" y="2030.0" type="line"/>
      <point x="614.0" y="1970.0"/>
      <point x="556.0" y="1911.0"/>
      <point x="414.0" y="1911.0" type="curve" smooth="yes"/>
      <point x="266.0" y="1911.0"/>
      <point x="168.0" y="1982.0"/>
      <point x="105.0" y="2034.0" type="curve"/>
      <point x="10.0" y="1921.0" type="line"/>
      <point x="108.0" y="1809.0"/>
      <point x="253.0" y="1725.0"/>
    </contour>
    <contour>
      <point x="72.0" y="1438.0" type="line"/>
      <point x="707.0" y="1438.0" type="line"/>
      <point x="707.0" y="1621.0" type="line"/>
      <point x="72.0" y="1621.0" type="line"/>
    </contour>
  </outline>
</glyph>
<glyph name="Euro" format="2">
  <advance width="1042.0"/>
  <unicode hex="20AC"/>
  <outline>
    <contour>
      <point x="667.0" y="-25.0" type="curve" smooth="yes"/>
      <point x="816.0" y="-25.0"/>
      <point x="934.0" y="45.0"/>
      <point x="1028.0" y="165.0" type="curve"/>
      <point x="902.0" y="280.0" type="line"/>
      <point x="839.0" y="195.0"/>
      <point x="772.0" y="148.0"/>
      <point x="681.0" y="148.0" type="curve" smooth="yes"/>
      <point x="533.0" y="148.0"/>
      <point x="435.0" y="266.0"/>
      <point x="400.0" y="465.0" type="curve"/>
      <point x="804.0" y="465.0" type="line"/>
      <point x="804.0" y="585.0" type="line"/>
      <point x="386.0" y="585.0" type="line"/>
      <point x="384.0" y="607.0"/>
      <point x="384.0" y="632.0"/>
      <point x="384.0" y="655.0" type="curve" smooth="yes"/>
      <point x="384.0" y="674.0"/>
      <point x="384.0" y="692.0"/>
      <point x="385.0" y="709.0" type="curve"/>
      <point x="886.0" y="709.0" type="line"/>
      <point x="886.0" y="829.0" type="line"/>
      <point x="397.0" y="829.0" type="line"/>
      <point x="430.0" y="1034.0"/>
      <point x="530.0" y="1156.0"/>
      <point x="686.0" y="1156.0" type="curve" smooth="yes"/>
      <point x="767.0" y="1156.0"/>
      <point x="828.0" y="1112.0"/>
      <point x="884.0" y="1048.0" type="curve"/>
      <point x="1010.0" y="1169.0" type="line"/>
      <point x="931.0" y="1264.0"/>
      <point x="817.0" y="1329.0"/>
      <point x="694.0" y="1329.0" type="curve" smooth="yes"/>
      <point x="424.0" y="1329.0"/>
      <point x="228.0" y="1144.0"/>
      <point x="175.0" y="828.0" type="curve"/>
      <point x="45.0" y="818.0" type="line"/>
      <point x="45.0" y="709.0" type="line"/>
      <point x="163.0" y="709.0" type="line"/>
      <point x="161.0" y="689.0"/>
      <point x="161.0" y="669.0"/>
      <point x="161.0" y="648.0" type="curve" smooth="yes"/>
      <point x="161.0" y="626.0"/>
      <point x="161.0" y="604.0"/>
      <point x="163.0" y="583.0" type="curve"/>
      <point x="45.0" y="574.0" type="line"/>
      <point x="45.0" y="465.0" type="line"/>
      <point x="175.0" y="465.0" type="line"/>
      <point x="227.0" y="152.0"/>
      <point x="418.0" y="-25.0"/>
    </contour>
  </outline>
</glyph>
<glyph name="c_na-deva" format="2">
  <advance width="1261.0"/>
  <anchor x="981.0" y="0.0" name="bottom"/>
  <anchor x="888.0" y="1287.0" name="candra"/>
  <anchor x="211.0" y="82.0" name="nukta"/>
  <anchor x="981.0" y="1287.0" name="top"/>
  <outline>
    <contour>
      <point x="529.0" y="-180.0" type="line"/>
      <point x="577.0" y="-144.0"/>
      <point x="597.0" y="-108.0"/>
      <point x="599.0" y="-75.0" type="curve" smooth="yes"/>
      <point x="601.0" y="-45.0"/>
      <point x="591.0" y="-16.0"/>
      <point x="576.0" y="8.0" type="curve" smooth="yes"/>
      <point x="541.0" y="66.0" type="line"/>
      <point x="525.0" y="5.0" type="line"/>
      <point x="960.0" y="343.0" type="line"/>
      <point x="829.0" y="431.0" type="line"/>
      <point x="237.0" y="51.0" type="line"/>
      <point x="306.0" y="-88.0" type="line"/>
    </contour>
    <component base="ca-deva"/>
  </outline>
</glyph>
<glyph name="caroncomb.cap" format="2">
  <anchor x="318.0" y="1340.0" name="_top"/>
  <anchor x="318.0" y="1679.0" name="top"/>
  <outline>
    <contour>
      <point x="207.0" y="1442.0" type="line"/>
      <point x="429.0" y="1442.0" type="line"/>
      <point x="626.0" y="1679.0" type="line"/>
      <point x="447.0" y="1679.0" type="line"/>
      <point x="322.0" y="1546.0" type="line"/>
      <point x="314.0" y="1546.0" type="line"/>
      <point x="189.0" y="1679.0" type="line"/>
      <point x="10.0" y="1679.0" type="line"/>
    </contour>
  </outline>
</glyph>
<glyph name="d_bh_ya-deva" format="2">
  <advance width="2625.0"/>
  <anchor x="2346.0" y="4.0" name="bottom"/>
  <anchor x="2320.0" y="1287.0" name="candra"/>
  <anchor x="2347.0" y="1287.0" name="top"/>
  <outline>
    <contour>
      <point x="1963.0" y="98.0" type="curve" smooth="yes"/>
      <point x="2092.0" y="98.0"/>
      <point x="2185.0" y="144.0"/>
      <point x="2266.0" y="228.0" type="curve"/>
      <point x="2278.0" y="484.0" type="line"/>
      <point x="2194.0" y="347.0"/>
      <point x="2066.0" y="290.0"/>
      <point x="1946.0" y="290.0" type="curve" smooth="yes"/>
      <point x="1822.0" y="290.0"/>
      <point x="1726.0" y="351.0"/>
      <point x="1690.0" y="497.0" type="curve"/>
      <point x="1673.0" y="419.0" type="line"/>
      <point x="1782.0" y="455.0"/>
      <point x="1941.0" y="514.0"/>
      <point x="1941.0" y="692.0" type="curve" smooth="yes"/>
      <point x="1941.0" y="848.0"/>
      <point x="1824.0" y="903.0"/>
      <point x="1621.0" y="902.0" type="curve" smooth="yes"/>
      <point x="1221.0" y="901.0" type="line"/>
      <point x="1205.0" y="722.0" type="line"/>
      <point x="1649.0" y="722.0" type="line" smooth="yes"/>
      <point x="1706.0" y="722.0"/>
      <point x="1749.0" y="713.0"/>
      <point x="1749.0" y="681.0" type="curve" smooth="yes"/>
      <point x="1749.0" y="632.0"/>
      <point x="1677.0" y="591.0"/>
      <point x="1491.0" y="546.0" type="curve"/>
      <point x="1543.0" y="260.0"/>
      <point x="1715.0" y="98.0"/>
    </contour>
    <contour>
      <point x="1381.0" y="1104.0" type="line"/>
      <point x="2644.0" y="1104.0" type="line"/>
      <point x="2644.0" y="1287.0" type="line"/>
      <point x="1381.0" y="1287.0" type="line"/>
    </contour>
    <contour>
      <point x="2449.0" y="0.0" type="line"/>
      <point x="2449.0" y="1131.0" type="line"/>
      <point x="2239.0" y="1131.0" type="line"/>
      <point x="2239.0" y="0.0" type="line"/>
    </contour>
    <contour>
      <point x="1000.0" y="72.0" type="curve" smooth="yes"/>
      <point x="1115.0" y="72.0"/>
      <point x="1220.0" y="95.0"/>
      <point x="1305.0" y="153.0" type="curve" smooth="yes"/>
      <point x="1376.0" y="200.0"/>
      <point x="1404.0" y="259.0"/>
      <point x="1404.0" y="323.0" type="curve" smooth="yes"/>
      <point x="1404.0" y="432.0"/>
      <point x="1299.0" y="508.0"/>
      <point x="1185.0" y="537.0" type="curve"/>
      <point x="1070.0" y="450.0" type="line"/>
      <point x="1173.0" y="236.0" type="line"/>
      <point x="1251.0" y="326.0" type="line"/>
      <point x="1152.0" y="260.0"/>
      <point x="1105.0" y="233.0"/>
      <point x="991.0" y="233.0" type="curve" smooth="yes"/>
      <point x="819.0" y="233.0"/>
      <point x="732.0" y="296.0"/>
      <point x="732.0" y="474.0" type="curve" smooth="yes"/>
      <point x="732.0" y="681.0"/>
      <point x="848.0" y="721.0"/>
      <point x="1053.0" y="721.0" type="curve"/>
      <point x="1277.0" y="722.0" type="line"/>
      <point x="1277.0" y="1134.0" type="line"/>
      <point x="1066.0" y="1134.0" type="line"/>
      <point x="1066.0" y="840.0" type="line"/>
      <point x="1207.0" y="870.0" type="line"/>
      <point x="1119.0" y="899.0"/>
      <point x="1049.0" y="908.0"/>
      <point x="995.0" y="908.0" type="curve" smooth="yes"/>
      <point x="652.0" y="908.0"/>
      <point x="514.0" y="745.0"/>
      <point x="514.0" y="502.0" type="curve" smooth="yes"/>
      <point x="514.0" y="230.0"/>
      <point x="669.0" y="72.0"/>
    </contour>
    <contour>
      <point x="623.0" y="-457.0" type="line"/>
      <point x="724.0" y="-394.0"/>
      <point x="706.0" y="-327.0"/>
      <point x="667.0" y="-258.0" type="curve" smooth="yes"/>
      <point x="563.0" y="-73.0" type="line"/>
      <point x="447.0" y="-142.0" type="line"/>
      <point x="296.0" y="-256.0" type="line"/>
      <point x="367.0" y="-381.0" type="line"/>
    </contour>
    <contour>
      <point x="465.0" y="-262.0" type="line"/>
      <point x="619.0" y="-170.0" type="line"/>
      <point x="425.0" y="162.0" type="line" smooth="yes"/>
      <point x="356.0" y="281.0"/>
      <point x="270.0" y="389.0"/>
      <point x="93.0" y="285.0" type="curve" smooth="yes"/>
      <point x="51.0" y="259.0"/>
      <point x="15.0" y="231.0"/>
      <point x="-19.0" y="191.0" type="curve"/>
      <point x="81.0" y="60.0" type="line"/>
      <point x="108.0" y="83.0"/>
      <point x="133.0" y="104.0"/>
      <point x="155.0" y="118.0" type="curve" smooth="yes"/>
      <point x="204.0" y="151.0"/>
      <point x="229.0" y="145.0"/>
      <point x="270.0" y="73.0" type="curve" smooth="yes"/>
    </contour>
    <contour>
      <point x="500.0" y="-340.0" type="line"/>
      <point x="1250.0" y="123.0" type="line"/>
      <point x="1159.0" y="237.0" type="line"/>
      <point x="416.0" y="-168.0" type="line"/>
    </contour>
    <contour>
      <point x="1371.0" y="-171.0" type="line"/>
      <point x="1536.0" y="-73.0" type="line"/>
      <point x="1304.0" y="272.0" type="line"/>
      <point x="1180.0" y="216.0" type="line"/>
    </contour>
    <contour>
      <point x="-12.0" y="1104.0" type="line"/>
      <point x="1504.0" y="1104.0" type="line"/>
      <point x="1504.0" y="1287.0" type="line"/>
      <point x="-12.0" y="1287.0" type="line"/>
    </contour>
  </outline>
</glyph>
<glyph name="d_dh_ya-deva" format="2">
  <advance width="2425.0"/>
  <anchor x="2144.0" y="27.0" name="bottom"/>
  <anchor x="2120.0" y="1287.0" name="candra"/>
  <anchor x="2137.0" y="1287.0" name="top"/>
  <outline>
    <contour>
      <point x="1763.0" y="98.0" type="curve" smooth="yes"/>
      <point x="1892.0" y="98.0"/>
      <point x="1985.0" y="144.0"/>
      <point x="2066.0" y="228.0" type="curve"/>
      <point x="2078.0" y="484.0" type="line"/>
      <point x="1994.0" y="347.0"/>
      <point x="1866.0" y="290.0"/>
      <point x="1746.0" y="290.0" type="curve" smooth="yes"/>
      <point x="1622.0" y="290.0"/>
      <point x="1526.0" y="351.0"/>
      <point x="1490.0" y="497.0" type="curve"/>
      <point x="1473.0" y="419.0" type="line"/>
      <point x="1582.0" y="455.0"/>
      <point x="1740.91" y="514.091"/>
      <point x="1741.0" y="692.0" type="curve" smooth="yes"/>
      <point x="1740.91" y="848.0"/>
      <point x="1624.0" y="903.0"/>
      <point x="1421.0" y="902.0" type="curve" smooth="yes"/>
      <point x="1021.0" y="901.0" type="line"/>
      <point x="1005.0" y="722.0" type="line"/>
      <point x="1449.0" y="722.0" type="line" smooth="yes"/>
      <point x="1506.0" y="722.0"/>
      <point x="1549.0" y="713.0"/>
      <point x="1549.0" y="681.0" type="curve" smooth="yes"/>
      <point x="1549.0" y="632.0"/>
      <point x="1477.0" y="591.0"/>
      <point x="1291.0" y="546.0" type="curve"/>
      <point x="1343.0" y="260.0"/>
      <point x="1515.0" y="98.0"/>
    </contour>
    <contour>
      <point x="-19.0" y="1104.0" type="line"/>
      <point x="2444.0" y="1104.0" type="line"/>
      <point x="2444.0" y="1287.0" type="line"/>
      <point x="-19.0" y="1287.0" type="line"/>
    </contour>
    <contour>
      <point x="2249.09" y="0.0" type="line"/>
      <point x="2249.0" y="1131.0" type="line"/>
      <point x="2039.0" y="1131.0" type="line"/>
      <point x="2039.09" y="0.0" type="line"/>
    </contour>
    <contour>
      <point x="845.0" y="58.0" type="curve" smooth="yes"/>
      <point x="951.0" y="58.0"/>
      <point x="1036.0" y="78.0"/>
      <point x="1121.0" y="134.0" type="curve" smooth="yes"/>
      <point x="1179.0" y="174.0"/>
      <point x="1220.0" y="259.0"/>
      <point x="1220.0" y="323.0" type="curve" smooth="yes"/>
      <point x="1220.0" y="432.0"/>
      <point x="1115.0" y="508.0"/>
      <point x="1001.0" y="537.0" type="curve"/>
      <point x="886.0" y="450.0" type="line"/>
      <point x="989.0" y="231.0" type="line"/>
      <point x="1087.0" y="326.0" type="line"/>
      <point x="988.0" y="260.0"/>
      <point x="941.0" y="233.0"/>
      <point x="827.0" y="233.0" type="curve" smooth="yes"/>
      <point x="655.0" y="233.0"/>
      <point x="568.0" y="296.0"/>
      <point x="568.0" y="474.0" type="curve" smooth="yes"/>
      <point x="568.0" y="681.0"/>
      <point x="684.0" y="721.0"/>
      <point x="889.0" y="721.0" type="curve"/>
      <point x="1113.0" y="723.0" type="line"/>
      <point x="1113.0" y="1134.0" type="line"/>
      <point x="902.0" y="1134.0" type="line"/>
      <point x="902.0" y="840.0" type="line"/>
      <point x="1043.0" y="870.0" type="line"/>
      <point x="955.0" y="899.0"/>
      <point x="885.0" y="908.0"/>
      <point x="831.0" y="908.0" type="curve" smooth="yes"/>
      <point x="488.0" y="908.0"/>
      <point x="350.0" y="745.0"/>
      <point x="350.0" y="502.0" type="curve" smooth="yes"/>
      <point x="350.0" y="248.0"/>
      <point x="505.0" y="58.0"/>
    </contour>
    <contour>
      <point x="311.0" y="327.0" type="curve"/>
      <point x="257.0" y="455.0" type="line"/>
      <point x="144.0" y="415.0"/>
      <point x="54.0" y="296.0"/>
      <point x="53.0" y="181.0" type="curve" smooth="yes"/>
      <point x="51.0" y="13.0"/>
      <point x="162.0" y="-81.0"/>
      <point x="334.0" y="-92.0" type="curve" smooth="yes"/>
      <point x="377.0" y="-95.0"/>
      <point x="424.0" y="-89.0"/>
      <point x="475.0" y="-80.0" type="curve"/>
      <point x="534.0" y="30.0" type="line"/>
      <point x="464.0" y="31.0"/>
      <point x="399.0" y="36.0"/>
      <point x="353.0" y="49.0" type="curve" smooth="yes"/>
      <point x="276.0" y="69.0"/>
      <point x="232.0" y="130.0"/>
      <point x="232.0" y="187.0" type="curve" smooth="yes"/>
      <point x="232.0" y="237.0"/>
      <point x="259.0" y="285.0"/>
    </contour>
    <contour>
      <point x="706.0" y="-432.0" type="curve" smooth="yes"/>
      <point x="1061.0" y="-432.0"/>
      <point x="1162.0" y="-27.0"/>
      <point x="1138.0" y="207.0" type="curve"/>
      <point x="1004.0" y="259.0" type="line"/>
      <point x="985.0" y="-91.0"/>
      <point x="861.0" y="-260.0"/>
      <point x="699.0" y="-260.0" type="curve" smooth="yes"/>
      <point x="634.0" y="-260.0"/>
      <point x="577.0" y="-223.0"/>
      <point x="577.0" y="-136.0" type="curve" smooth="yes"/>
      <point x="577.0" y="-22.0"/>
      <point x="680.0" y="46.0"/>
      <point x="757.0" y="86.0" type="curve"/>
      <point x="706.0" y="227.0" type="line"/>
      <point x="596.0" y="175.0"/>
      <point x="381.0" y="74.0"/>
      <point x="381.0" y="-137.0" type="curve" smooth="yes"/>
      <point x="381.0" y="-322.0"/>
      <point x="525.0" y="-432.0"/>
    </contour>
    <contour>
      <point x="1224.0" y="-171.0" type="line"/>
      <point x="1371.0" y="-73.0" type="line"/>
      <point x="1140.0" y="272.0" type="line"/>
      <point x="1033.0" y="216.0" type="line"/>
    </contour>
  </outline>
</glyph>
<glyph name="dd_dd_ya-deva" format="2">
  <advance width="2248.0"/>
  <anchor x="1976.0" y="0.0" name="bottom"/>
  <anchor x="1570.0" y="1287.0" name="candra"/>
  <anchor x="1968.0" y="1287.0" name="top"/>
  <anchor x="576.0" y="-753.0" name="nukta"/>
  <outline>
    <contour>
      <point x="1036.0" y="1104.0" type="line"/>
      <point x="2267.0" y="1104.0" type="line"/>
      <point x="2267.0" y="1287.0" type="line"/>
      <point x="1036.0" y="1287.0" type="line"/>
    </contour>
    <contour>
      <point x="1603.0" y="127.0" type="curve" smooth="yes"/>
      <point x="1732.0" y="127.0"/>
      <point x="1825.0" y="173.0"/>
      <point x="1906.0" y="257.0" type="curve"/>
      <point x="1918.0" y="513.0" type="line"/>
      <point x="1834.0" y="376.0"/>
      <point x="1706.0" y="319.0"/>
      <point x="1586.0" y="319.0" type="curve" smooth="yes"/>
      <point x="1462.0" y="319.0"/>
      <point x="1366.0" y="380.0"/>
      <point x="1330.0" y="526.0" type="curve"/>
      <point x="1313.0" y="448.0" type="line"/>
      <point x="1422.0" y="484.0"/>
      <point x="1581.0" y="536.0"/>
      <point x="1581.0" y="724.0" type="curve" smooth="yes"/>
      <point x="1581.0" y="913.0"/>
      <point x="1464.0" y="971.0"/>
      <point x="1261.0" y="970.0" type="curve" smooth="yes"/>
      <point x="873.0" y="969.0" type="line"/>
      <point x="884.0" y="794.0" type="line"/>
      <point x="1290.0" y="794.0" type="line" smooth="yes"/>
      <point x="1346.0" y="794.0"/>
      <point x="1389.0" y="779.0"/>
      <point x="1389.0" y="725.0" type="curve" smooth="yes"/>
      <point x="1389.0" y="648.0"/>
      <point x="1317.0" y="620.0"/>
      <point x="1132.0" y="575.0" type="curve"/>
      <point x="1183.0" y="289.0"/>
      <point x="1355.0" y="127.0"/>
    </contour>
    <contour>
      <point x="1879.0" y="0.0" type="line"/>
      <point x="2089.0" y="0.0" type="line"/>
      <point x="2089.0" y="1131.0" type="line"/>
      <point x="1879.0" y="1131.0" type="line"/>
    </contour>
    <component base="dd_dda-deva"/>
  </outline>
</glyph>
<glyph name="ddh_ddh_ya-deva" format="2">
  <advance width="2310.0"/>
  <anchor x="2038.0" y="0.0" name="bottom"/>
  <anchor x="1632.0" y="1287.0" name="candra"/>
  <anchor x="2030.0" y="1287.0" name="top"/>
  <anchor x="-11.0" y="-452.0" name="nukta"/>
  <outline>
    <contour>
      <point x="1098.0" y="1104.0" type="line"/>
      <point x="2329.0" y="1104.0" type="line"/>
      <point x="2329.0" y="1287.0" type="line"/>
      <point x="1098.0" y="1287.0" type="line"/>
    </contour>
    <contour>
      <point x="1665.0" y="127.0" type="curve" smooth="yes"/>
      <point x="1794.0" y="127.0"/>
      <point x="1887.0" y="173.0"/>
      <point x="1968.0" y="257.0" type="curve"/>
      <point x="1980.0" y="513.0" type="line"/>
      <point x="1896.0" y="376.0"/>
      <point x="1768.0" y="319.0"/>
      <point x="1648.0" y="319.0" type="curve" smooth="yes"/>
      <point x="1524.0" y="319.0"/>
      <point x="1428.0" y="380.0"/>
      <point x="1392.0" y="526.0" type="curve"/>
      <point x="1375.0" y="448.0" type="line"/>
      <point x="1484.0" y="484.0"/>
      <point x="1643.0" y="559.0"/>
      <point x="1643.0" y="747.0" type="curve" smooth="yes"/>
      <point x="1643.0" y="956.0"/>
      <point x="1526.0" y="991.0"/>
      <point x="1323.0" y="992.0" type="curve" smooth="yes"/>
      <point x="841.0" y="994.0" type="line"/>
      <point x="862.0" y="844.0" type="line"/>
      <point x="1352.0" y="841.0" type="line" smooth="yes"/>
      <point x="1408.0" y="841.0"/>
      <point x="1451.0" y="822.0"/>
      <point x="1451.0" y="748.0" type="curve" smooth="yes"/>
      <point x="1451.0" y="671.0"/>
      <point x="1379.0" y="620.0"/>
      <point x="1194.0" y="575.0" type="curve"/>
      <point x="1245.0" y="289.0"/>
      <point x="1417.0" y="127.0"/>
    </contour>
    <contour>
      <point x="1941.0" y="0.0" type="line"/>
      <point x="2151.0" y="0.0" type="line"/>
      <point x="2151.0" y="1131.0" type="line"/>
      <point x="1941.0" y="1131.0" type="line"/>
    </contour>
    <component base="ddh_ddha-deva"/>
  </outline>
</glyph>
<glyph name="dieresisbelowcomb.cap" format="2">
  <anchor x="313.0" y="0.0" name="_bottom"/>
  <anchor x="313.0" y="-423.0" name="bottom"/>
  <outline>
    <contour>
      <point x="499.0" y="-423.0" type="curve" smooth="yes"/>
      <point x="568.0" y="-423.0"/>
      <point x="616.0" y="-372.0"/>
      <point x="616.0" y="-306.0" type="curve" smooth="yes"/>
      <point x="616.0" y="-241.0"/>
      <point x="568.0" y="-190.0"/>
      <point x="499.0" y="-190.0" type="curve" smooth="yes"/>
      <point x="432.0" y="-190.0"/>
      <point x="383.0" y="-241.0"/>
      <point x="383.0" y="-306.0" type="curve" smooth="yes"/>
      <point x="383.0" y="-372.0"/>
      <point x="432.0" y="-423.0"/>
    </contour>
    <contour>
      <point x="127.0" y="-423.0" type="curve" smooth="yes"/>
      <point x="194.0" y="-423.0"/>
      <point x="243.0" y="-372.0"/>
      <point x="243.0" y="-306.0" type="curve" smooth="yes"/>
      <point x="243.0" y="-241.0"/>
      <point x="194.0" y="-190.0"/>
      <point x="127.0" y="-190.0" type="curve" smooth="yes"/>
      <point x="58.0" y="-190.0"/>
      <point x="10.0" y="-241.0"/>
      <point x="10.0" y="-306.0" type="curve" smooth="yes"/>
      <point x="10.0" y="-372.0"/>
      <point x="58.0" y="-423.0"/>
    </contour>
  </outline>
</glyph>
<glyph name="dotaccentcomb.cap" format="2">
  <anchor x="152.0" y="1340.0" name="_top"/>
  <anchor x="152.0" y="1712.0" name="top"/>
  <outline>
    <contour>
      <point x="152.0" y="1470.0" type="curve" smooth="yes"/>
      <point x="233.0" y="1470.0"/>
      <point x="294.0" y="1524.0"/>
      <point x="294.0" y="1602.0" type="curve" smooth="yes"/>
      <point x="294.0" y="1678.0"/>
      <point x="233.0" y="1732.0"/>
      <point x="152.0" y="1732.0" type="curve" smooth="yes"/>
      <point x="71.0" y="1732.0"/>
      <point x="10.0" y="1678.0"/>
      <point x="10.0" y="1602.0" type="curve" smooth="yes"/>
      <point x="10.0" y="1524.0"/>
      <point x="71.0" y="1470.0"/>
    </contour>
  </outline>
</glyph>
<glyph name="dotbelowcomb.cap" format="2">
  <anchor x="142.0" y="0.0" name="_bottom"/>
  <anchor x="142.0" y="-438.0" name="bottom"/>
  <outline>
    <contour>
      <point x="142.0" y="-438.0" type="curve" smooth="yes"/>
      <point x="218.0" y="-438.0"/>
      <point x="274.0" y="-385.0"/>
      <point x="274.0" y="-309.0" type="curve" smooth="yes"/>
      <point x="274.0" y="-235.0"/>
      <point x="218.0" y="-182.0"/>
      <point x="142.0" y="-182.0" type="curve" smooth="yes"/>
      <point x="66.0" y="-182.0"/>
      <point x="10.0" y="-235.0"/>
      <point x="10.0" y="-309.0" type="curve" smooth="yes"/>
      <point x="10.0" y="-385.0"/>
      <point x="66.0" y="-438.0"/>
    </contour>
  </outline>
</glyph>
<glyph name="eight.lf" format="2">
  <advance width="1094.0"/>
  <outline>
    <contour>
      <point x="547.0" y="-25.0" type="curve" smooth="yes"/>
      <point x="829.0" y="-25.0"/>
      <point x="983.0" y="140.0"/>
      <point x="983.0" y="339.0" type="curve" smooth="yes"/>
      <point x="983.0" y="513.0"/>
      <point x="877.0" y="618.0"/>
      <point x="758.0" y="685.0" type="curve"/>
      <point x="758.0" y="694.0" type="line"/>
      <point x="840.0" y="754.0"/>
      <point x="934.0" y="879.0"/>
      <point x="934.0" y="1011.0" type="curve" smooth="yes"/>
      <point x="934.0" y="1219.0"/>
      <point x="794.0" y="1367.0"/>
      <point x="558.0" y="1367.0" type="curve" smooth="yes"/>
      <point x="320.0" y="1367.0"/>
      <point x="167.0" y="1223.0"/>
      <point x="167.0" y="1014.0" type="curve" smooth="yes"/>
      <point x="167.0" y="877.0"/>
      <point x="248.0" y="772.0"/>
      <point x="347.0" y="701.0" type="curve"/>
      <point x="347.0" y="693.0" type="line"/>
      <point x="224.0" y="628.0"/>
      <point x="109.0" y="508.0"/>
      <point x="109.0" y="343.0" type="curve" smooth="yes"/>
      <point x="109.0" y="135.0"/>
      <point x="288.0" y="-25.0"/>
    </contour>
    <contour>
      <point x="552.0" y="132.0" type="curve" smooth="yes"/>
      <point x="404.0" y="132.0"/>
      <point x="303.0" y="233.0"/>
      <point x="303.0" y="366.0" type="curve" smooth="yes"/>
      <point x="303.0" y="470.0"/>
      <point x="367.0" y="568.0"/>
      <point x="453.0" y="631.0" type="curve"/>
      <point x="632.0" y="558.0"/>
      <point x="777.0" y="494.0"/>
      <point x="777.0" y="346.0" type="curve" smooth="yes"/>
      <point x="777.0" y="221.0"/>
      <point x="704.0" y="132.0"/>
    </contour>
    <contour>
      <point x="635.0" y="750.0" type="curve"/>
      <point x="487.0" y="807.0"/>
      <point x="364.0" y="878.0"/>
      <point x="364.0" y="1014.0" type="curve" smooth="yes"/>
      <point x="364.0" y="1131.0"/>
      <point x="432.0" y="1210.0"/>
      <point x="553.0" y="1210.0" type="curve" smooth="yes"/>
      <point x="684.0" y="1210.0"/>
      <point x="751.0" y="1117.0"/>
      <point x="751.0" y="998.0" type="curve" smooth="yes"/>
      <point x="751.0" y="913.0"/>
      <point x="709.0" y="821.0"/>
    </contour>
  </outline>
</glyph>
<glyph name="eight.osf" format="2">
  <advance width="1085.0"/>
  <outline>
    <contour>
      <point x="539.0" y="-25.0" type="curve" smooth="yes"/>
      <point x="814.0" y="-25.0"/>
      <point x="976.0" y="136.0"/>
      <point x="976.0" y="335.0" type="curve" smooth="yes"/>
      <point x="976.0" y="509.0"/>
      <point x="869.0" y="618.0"/>
      <point x="750.0" y="685.0" type="curve"/>
      <point x="750.0" y="694.0" type="line"/>
      <point x="833.0" y="754.0"/>
      <point x="926.0" y="883.0"/>
      <point x="926.0" y="1015.0" type="curve" smooth="yes"/>
      <point x="926.0" y="1223.0"/>
      <point x="781.0" y="1365.0"/>
      <point x="551.0" y="1365.0" type="curve" smooth="yes"/>
      <point x="315.0" y="1365.0"/>
      <point x="159.0" y="1227.0"/>
      <point x="159.0" y="1018.0" type="curve" smooth="yes"/>
      <point x="159.0" y="881.0"/>
      <point x="240.0" y="772.0"/>
      <point x="338.0" y="701.0" type="curve"/>
      <point x="338.0" y="693.0" type="line"/>
      <point x="208.0" y="628.0"/>
      <point x="102.0" y="508.0"/>
      <point x="102.0" y="343.0" type="curve" smooth="yes"/>
      <point x="102.0" y="135.0"/>
      <point x="288.0" y="-25.0"/>
    </contour>
    <contour>
      <point x="544.0" y="132.0" type="curve" smooth="yes"/>
      <point x="404.0" y="132.0"/>
      <point x="294.0" y="229.0"/>
      <point x="294.0" y="363.0" type="curve" smooth="yes"/>
      <point x="294.0" y="466.0"/>
      <point x="358.0" y="568.0"/>
      <point x="445.0" y="631.0" type="curve"/>
      <point x="624.0" y="558.0"/>
      <point x="769.0" y="490.0"/>
      <point x="769.0" y="342.0" type="curve" smooth="yes"/>
      <point x="769.0" y="218.0"/>
      <point x="689.0" y="132.0"/>
    </contour>
    <contour>
      <point x="627.0" y="750.0" type="curve"/>
      <point x="479.0" y="807.0"/>
      <point x="356.0" y="881.0"/>
      <point x="356.0" y="1018.0" type="curve" smooth="yes"/>
      <point x="356.0" y="1135.0"/>
      <point x="428.0" y="1208.0"/>
      <point x="546.0" y="1208.0" type="curve" smooth="yes"/>
      <point x="672.0" y="1208.0"/>
      <point x="742.0" y="1121.0"/>
      <point x="742.0" y="1002.0" type="curve" smooth="yes"/>
      <point x="742.0" y="917.0"/>
      <point x="701.0" y="821.0"/>
    </contour>
  </outline>
</glyph>
<glyph name="eight.tf" format="2">
  <advance width="1003.0"/>
  <outline>
    <contour>
      <point x="502.0" y="-25.0" type="curve" smooth="yes"/>
      <point x="784.0" y="-25.0"/>
      <point x="938.0" y="140.0"/>
      <point x="938.0" y="339.0" type="curve" smooth="yes"/>
      <point x="938.0" y="513.0"/>
      <point x="832.0" y="618.0"/>
      <point x="713.0" y="685.0" type="curve"/>
      <point x="713.0" y="694.0" type="line"/>
      <point x="795.0" y="754.0"/>
      <point x="889.0" y="879.0"/>
      <point x="889.0" y="1011.0" type="curve" smooth="yes"/>
      <point x="889.0" y="1219.0"/>
      <point x="749.0" y="1367.0"/>
      <point x="514.0" y="1367.0" type="curve" smooth="yes"/>
      <point x="275.0" y="1367.0"/>
      <point x="122.0" y="1223.0"/>
      <point x="122.0" y="1014.0" type="curve" smooth="yes"/>
      <point x="122.0" y="877.0"/>
      <point x="203.0" y="772.0"/>
      <point x="302.0" y="701.0" type="curve"/>
      <point x="302.0" y="693.0" type="line"/>
      <point x="179.0" y="628.0"/>
      <point x="64.0" y="508.0"/>
      <point x="64.0" y="343.0" type="curve" smooth="yes"/>
      <point x="64.0" y="135.0"/>
      <point x="243.0" y="-25.0"/>
    </contour>
    <contour>
      <point x="507.0" y="132.0" type="curve" smooth="yes"/>
      <point x="359.0" y="132.0"/>
      <point x="258.0" y="233.0"/>
      <point x="258.0" y="366.0" type="curve" smooth="yes"/>
      <point x="258.0" y="470.0"/>
      <point x="322.0" y="568.0"/>
      <point x="408.0" y="631.0" type="curve"/>
      <point x="587.0" y="558.0"/>
      <point x="732.0" y="494.0"/>
      <point x="732.0" y="346.0" type="curve" smooth="yes"/>
      <point x="732.0" y="221.0"/>
      <point x="659.0" y="132.0"/>
    </contour>
    <contour>
      <point x="590.0" y="750.0" type="curve"/>
      <point x="442.0" y="807.0"/>
      <point x="319.0" y="878.0"/>
      <point x="319.0" y="1014.0" type="curve" smooth="yes"/>
      <point x="319.0" y="1131.0"/>
      <point x="387.0" y="1210.0"/>
      <point x="508.0" y="1210.0" type="curve" smooth="yes"/>
      <point x="639.0" y="1210.0"/>
      <point x="706.0" y="1117.0"/>
      <point x="706.0" y="998.0" type="curve" smooth="yes"/>
      <point x="706.0" y="913.0"/>
      <point x="664.0" y="821.0"/>
    </contour>
  </outline>
</glyph>
<glyph name="five.lf" format="2">
  <advance width="1042.0"/>
  <outline>
    <contour>
      <point x="489.0" y="-25.0" type="curve" smooth="yes"/>
      <point x="740.0" y="-25.0"/>
      <point x="944.0" y="157.0"/>
      <point x="944.0" y="443.0" type="curve" smooth="yes"/>
      <point x="944.0" y="723.0"/>
      <point x="772.0" y="866.0"/>
      <point x="535.0" y="866.0" type="curve" smooth="yes"/>
      <point x="465.0" y="866.0"/>
      <point x="412.0" y="851.0"/>
      <point x="355.0" y="822.0" type="curve"/>
      <point x="385.0" y="1156.0" type="line"/>
      <point x="881.0" y="1156.0" type="line"/>
      <point x="881.0" y="1343.0" type="line"/>
      <point x="195.0" y="1343.0" type="line"/>
      <point x="155.0" y="701.0" type="line"/>
      <point x="262.0" y="633.0" type="line"/>
      <point x="340.0" y="684.0"/>
      <point x="389.0" y="707.0"/>
      <point x="473.0" y="707.0" type="curve" smooth="yes"/>
      <point x="623.0" y="707.0"/>
      <point x="724.0" y="598.0"/>
      <point x="724.0" y="437.0" type="curve" smooth="yes"/>
      <point x="724.0" y="255.0"/>
      <point x="613.0" y="155.0"/>
      <point x="463.0" y="155.0" type="curve" smooth="yes"/>
      <point x="325.0" y="155.0"/>
      <point x="257.0" y="216.0"/>
      <point x="179.0" y="286.0" type="curve"/>
      <point x="77.0" y="145.0" type="line"/>
      <point x="172.0" y="56.0"/>
      <point x="279.0" y="-25.0"/>
    </contour>
  </outline>
</glyph>
<glyph name="five.osf" format="2">
  <advance width="1042.0"/>
  <outline>
    <contour>
      <point x="495.0" y="-179.0" type="curve" smooth="yes"/>
      <point x="733.0" y="-179.0"/>
      <point x="944.0" y="-15.0"/>
      <point x="944.0" y="283.0" type="curve" smooth="yes"/>
      <point x="944.0" y="565.0"/>
      <point x="766.0" y="695.0"/>
      <point x="535.0" y="695.0" type="curve" smooth="yes"/>
      <point x="465.0" y="695.0"/>
      <point x="412.0" y="678.0"/>
      <point x="355.0" y="650.0" type="curve"/>
      <point x="385.0" y="993.0" type="line"/>
      <point x="881.0" y="993.0" type="line"/>
      <point x="881.0" y="1179.0" type="line"/>
      <point x="195.0" y="1179.0" type="line"/>
      <point x="155.0" y="530.0" type="line"/>
      <point x="262.0" y="460.0" type="line"/>
      <point x="340.0" y="513.0"/>
      <point x="389.0" y="535.0"/>
      <point x="473.0" y="535.0" type="curve" smooth="yes"/>
      <point x="623.0" y="535.0"/>
      <point x="724.0" y="439.0"/>
      <point x="724.0" y="275.0" type="curve" smooth="yes"/>
      <point x="724.0" y="101.0"/>
      <point x="622.0" y="0.0"/>
      <point x="469.0" y="0.0" type="curve" smooth="yes"/>
      <point x="331.0" y="0.0"/>
      <point x="246.0" y="61.0"/>
      <point x="168.0" y="135.0" type="curve"/>
      <point x="66.0" y="-2.0" type="line"/>
      <point x="161.0" y="-98.0"/>
      <point x="284.0" y="-179.0"/>
    </contour>
  </outline>
</glyph>
<glyph name="four.osf" format="2">
  <advance width="1082.0"/>
  <outline>
    <contour>
      <point x="631.0" y="-155.0" type="line"/>
      <point x="837.0" y="-155.0" type="line"/>
      <point x="837.0" y="184.0" type="line"/>
      <point x="1004.0" y="184.0" type="line"/>
      <point x="1004.0" y="355.0" type="line"/>
      <point x="837.0" y="355.0" type="line"/>
      <point x="837.0" y="1179.0" type="line"/>
      <point x="579.0" y="1179.0" type="line"/>
      <point x="53.0" y="332.0" type="line"/>
      <point x="53.0" y="184.0" type="line"/>
      <point x="631.0" y="184.0" type="line"/>
    </contour>
    <contour>
      <point x="273.0" y="355.0" type="line"/>
      <point x="528.0" y="753.0" type="line"/>
      <point x="564.0" y="822.0"/>
      <point x="601.0" y="897.0"/>
      <point x="634.0" y="965.0" type="curve"/>
      <point x="642.0" y="965.0" type="line"/>
      <point x="638.0" y="891.0"/>
      <point x="631.0" y="777.0"/>
      <point x="631.0" y="702.0" type="curve"/>
      <point x="631.0" y="355.0" type="line"/>
    </contour>
  </outline>
</glyph>
<glyph name="g_n_ya-deva" format="2">
  <advance width="1778.0"/>
  <anchor x="1497.0" y="0.0" name="bottom"/>
  <anchor x="1367.0" y="1287.0" name="candra"/>
  <anchor x="306.0" y="54.0" name="nukta_1"/>
  <anchor x="810.0" y="34.0" name="nukta_2"/>
  <anchor x="1497.0" y="1287.0" name="top"/>
  <outline>
    <contour>
      <point x="512.0" y="-58.0" type="line"/>
      <point x="555.0" y="-22.0"/>
      <point x="571.0" y="13.0"/>
      <point x="571.0" y="45.0" type="curve" smooth="yes"/>
      <point x="571.0" y="73.0"/>
      <point x="561.0" y="100.0"/>
      <point x="545.0" y="123.0" type="curve" smooth="yes"/>
      <point x="503.0" y="184.0" type="line"/>
      <point x="490.0" y="124.0" type="line"/>
      <point x="916.0" y="449.0" type="line"/>
      <point x="830.0" y="580.0" type="line"/>
      <point x="212.0" y="151.0" type="line"/>
      <point x="286.0" y="21.0" type="line"/>
    </contour>
    <component base="g-deva"/>
    <component base="ya-deva" xOffset="614.0"/>
  </outline>
</glyph>
<glyph name="gh_na-deva" format="2">
  <advance width="1196.0"/>
  <anchor x="918.0" y="0.0" name="bottom"/>
  <anchor x="817.0" y="1287.0" name="candra"/>
  <anchor x="210.0" y="82.0" name="nukta"/>
  <anchor x="919.0" y="1287.0" name="top"/>
  <outline>
    <contour>
      <point x="439.0" y="-180.0" type="line"/>
      <point x="487.0" y="-144.0"/>
      <point x="507.0" y="-108.0"/>
      <point x="509.0" y="-75.0" type="curve" smooth="yes"/>
      <point x="510.0" y="-45.0"/>
      <point x="501.0" y="-16.0"/>
      <point x="486.0" y="8.0" type="curve" smooth="yes"/>
      <point x="451.0" y="66.0" type="line"/>
      <point x="435.0" y="5.0" type="line"/>
      <point x="870.0" y="343.0" type="line"/>
      <point x="739.0" y="431.0" type="line"/>
      <point x="147.0" y="51.0" type="line"/>
      <point x="216.0" y="-88.0" type="line"/>
    </contour>
    <component base="gha-deva" xOffset="9.0"/>
  </outline>
</glyph>
<glyph name="ghh_ra-deva" format="2">
  <advance width="1146.0"/>
  <anchor x="865.0" y="27.0" name="bottom"/>
  <anchor x="502.0" y="1287.0" name="candra"/>
  <anchor x="320.0" y="62.0" name="nukta"/>
  <anchor x="865.0" y="1287.0" name="top"/>
  <outline>
    <contour>
      <point x="297.0" y="-74.0" type="line"/>
      <point x="866.0" y="345.0" type="line"/>
      <point x="785.0" y="452.0" type="line"/>
      <point x="177.0" y="79.0" type="line"/>
    </contour>
    <component base="ga-deva"/>
    <component base="nukta-deva" xOffset="336.0" yOffset="-15.0"/>
  </outline>
</glyph>
<glyph name="ha_rVocalicMatra-deva" format="2">
  <advance width="1015.0"/>
  <anchor x="746.0" y="-205.0" name="bottom"/>
  <anchor x="640.0" y="1287.0" name="candra"/>
  <anchor x="742.0" y="1287.0" name="top"/>
  <outline>
    <contour>
      <point x="784.0" y="-367.0" type="curve"/>
      <point x="834.0" y="-207.0" type="line"/>
      <point x="497.0" y="-122.0"/>
      <point x="280.0" y="9.091"/>
      <point x="280.0" y="193.0" type="curve" smooth="yes"/>
      <point x="280.0" y="314.909"/>
      <point x="370.0" y="417.0"/>
      <point x="561.0" y="417.0" type="curve" smooth="yes"/>
      <point x="670.0" y="417.0"/>
      <point x="692.0" y="393.0"/>
      <point x="692.0" y="374.0" type="curve" smooth="yes"/>
      <point x="692.0" y="352.0"/>
      <point x="675.0" y="343.0"/>
      <point x="626.0" y="315.0" type="curve" smooth="yes"/>
      <point x="549.0" y="271.0"/>
      <point x="482.0" y="233.0"/>
      <point x="482.0" y="127.0" type="curve" smooth="yes"/>
      <point x="482.0" y="50.0"/>
      <point x="534.091" y="-67.909"/>
      <point x="728.0" y="-68.0" type="curve" smooth="yes"/>
      <point x="794.0" y="-68.0"/>
      <point x="858.0" y="-55.0"/>
      <point x="921.0" y="-25.0" type="curve"/>
      <point x="881.0" y="131.0" type="line"/>
      <point x="832.0" y="109.0"/>
      <point x="755.0" y="90.0"/>
      <point x="703.0" y="92.0" type="curve" smooth="yes"/>
      <point x="674.091" y="92.909"/>
      <point x="649.0" y="102.0"/>
      <point x="649.0" y="128.0" type="curve" smooth="yes"/>
      <point x="649.0" y="151.0"/>
      <point x="657.0" y="160.0"/>
      <point x="736.0" y="203.0" type="curve" smooth="yes"/>
      <point x="818.0" y="247.0"/>
      <point x="882.0" y="280.0"/>
      <point x="882.0" y="386.0" type="curve" smooth="yes"/>
      <point x="882.0" y="500.0"/>
      <point x="760.0" y="598.0"/>
      <point x="544.0" y="598.0" type="curve" smooth="yes"/>
      <point x="296.0" y="598.0"/>
      <point x="72.0" y="490.0"/>
      <point x="72.0" y="233.0" type="curve" smooth="yes"/>
      <point x="72.0" y="14.0"/>
      <point x="234.0" y="-245.0"/>
    </contour>
    <contour>
      <point x="267.0" y="405.0" type="curve"/>
      <point x="393.0" y="457.0" type="line"/>
      <point x="339.0" y="548.0"/>
      <point x="312.0" y="624.0"/>
      <point x="313.0" y="669.0" type="curve" smooth="yes"/>
      <point x="313.0" y="710.0"/>
      <point x="335.0" y="745.0"/>
      <point x="423.0" y="745.0" type="curve" smooth="yes"/>
      <point x="847.0" y="745.0" type="line"/>
      <point x="847.0" y="1156.0" type="line"/>
      <point x="637.0" y="1156.0" type="line"/>
      <point x="637.0" y="932.0" type="line"/>
      <point x="395.0" y="932.0" type="line" smooth="yes"/>
      <point x="181.0" y="932.0"/>
      <point x="99.0" y="835.0"/>
      <point x="98.0" y="721.0" type="curve" smooth="yes"/>
      <point x="98.0" y="621.0"/>
      <point x="160.0" y="525.0"/>
    </contour>
    <contour>
      <point x="-19.0" y="1104.0" type="line"/>
      <point x="1034.0" y="1104.0" type="line"/>
      <point x="1034.0" y="1287.0" type="line"/>
      <point x="-19.0" y="1287.0" type="line"/>
    </contour>
  </outline>
</glyph>
<glyph name="j_ny-deva" format="2">
  <advance width="955.0"/>
  <outline>
    <contour>
      <point x="539.0" y="-64.0" type="curve"/>
      <point x="795.0" y="-64.0"/>
      <point x="955.0" y="60.0"/>
      <point x="955.0" y="295.0" type="curve" smooth="yes"/>
      <point x="955.0" y="524.0"/>
      <point x="801.0" y="559.0"/>
      <point x="642.0" y="559.0" type="curve" smooth="yes"/>
      <point x="522.0" y="559.0"/>
      <point x="416.0" y="538.0"/>
      <point x="358.0" y="525.0" type="curve"/>
      <point x="379.0" y="518.0" type="line"/>
      <point x="371.0" y="542.0"/>
      <point x="355.0" y="582.0"/>
      <point x="355.0" y="635.0" type="curve" smooth="yes"/>
      <point x="355.0" y="715.0"/>
      <point x="396.0" y="735.0"/>
      <point x="497.0" y="735.0" type="curve" smooth="yes"/>
      <point x="1324.0" y="735.0" type="line"/>
      <point x="1325.0" y="922.0" type="line"/>
      <point x="462.0" y="922.0" type="line" smooth="yes"/>
      <point x="265.0" y="922.0"/>
      <point x="168.0" y="854.0"/>
      <point x="168.0" y="692.0" type="curve" smooth="yes"/>
      <point x="168.0" y="561.0"/>
      <point x="228.0" y="421.0"/>
      <point x="299.0" y="365.0" type="curve" smooth="yes"/>
      <point x="334.0" y="338.0"/>
      <point x="355.0" y="339.0"/>
      <point x="383.0" y="342.0" type="curve" smooth="yes"/>
      <point x="443.0" y="348.0"/>
      <point x="551.0" y="369.0"/>
      <point x="631.0" y="369.0" type="curve" smooth="yes"/>
      <point x="737.0" y="369.0"/>
      <point x="759.0" y="334.0"/>
      <point x="759.0" y="272.0" type="curve" smooth="yes"/>
      <point x="759.0" y="196.0"/>
      <point x="723.0" y="120.0"/>
      <point x="527.0" y="120.0" type="curve" smooth="yes"/>
      <point x="458.0" y="120.0"/>
      <point x="374.0" y="129.0"/>
      <point x="245.0" y="184.0" type="curve"/>
      <point x="367.0" y="83.0" type="line"/>
      <point x="266.0" y="279.0" type="line"/>
      <point x="92.0" y="251.0" type="line"/>
      <point x="87.0" y="221.0"/>
      <point x="84.0" y="186.0"/>
      <point x="84.0" y="164.0" type="curve" smooth="yes"/>
      <point x="84.0" y="24.0"/>
      <point x="202.0" y="-21.0"/>
      <point x="331.0" y="-57.0" type="curve"/>
      <point x="345.0" y="-25.0" type="line"/>
      <point x="410.0" y="-51.0"/>
      <point x="471.0" y="-64.0"/>
    </contour>
    <contour>
      <point x="440.0" y="-362.0" type="line"/>
      <point x="610.0" y="-268.0" type="line"/>
      <point x="327.0" y="126.0" type="line"/>
      <point x="202.0" y="117.0" type="line"/>
    </contour>
    <contour>
      <point x="-20.0" y="1104.0" type="line"/>
      <point x="1065.0" y="1104.0" type="line"/>
      <point x="1065.0" y="1287.0" type="line"/>
      <point x="-20.0" y="1287.0" type="line"/>
    </contour>
  </outline>
</glyph>
<glyph name="jh_ra-deva" format="2">
  <advance width="1182.0"/>
  <outline>
    <contour>
      <point x="563.0" y="16.0" type="curve"/>
      <point x="798.0" y="16.0"/>
      <point x="966.0" y="140.0"/>
      <point x="966.0" y="375.0" type="curve" smooth="yes"/>
      <point x="966.0" y="604.0"/>
      <point x="809.0" y="639.0"/>
      <point x="653.0" y="639.0" type="curve" smooth="yes"/>
      <point x="528.0" y="639.0"/>
      <point x="355.0" y="618.0"/>
      <point x="294.0" y="605.0" type="curve"/>
      <point x="317.0" y="598.0" type="line"/>
      <point x="305.0" y="622.0"/>
      <point x="288.0" y="652.0"/>
      <point x="288.0" y="695.0" type="curve" smooth="yes"/>
      <point x="288.0" y="758.0"/>
      <point x="319.0" y="785.0"/>
      <point x="438.0" y="785.0" type="curve" smooth="yes"/>
      <point x="785.0" y="785.0" type="line"/>
      <point x="761.0" y="972.0" type="line"/>
      <point x="401.0" y="972.0" type="line" smooth="yes"/>
      <point x="179.0" y="972.0"/>
      <point x="101.0" y="886.0"/>
      <point x="101.0" y="742.0" type="curve" smooth="yes"/>
      <point x="101.0" y="632.0"/>
      <point x="162.0" y="501.0"/>
      <point x="233.0" y="446.0" type="curve" smooth="yes"/>
      <point x="269.0" y="418.0"/>
      <point x="291.0" y="419.0"/>
      <point x="321.0" y="422.0" type="curve" smooth="yes"/>
      <point x="385.0" y="428.0"/>
      <point x="557.0" y="449.0"/>
      <point x="642.0" y="449.0" type="curve" smooth="yes"/>
      <point x="746.0" y="449.0"/>
      <point x="773.0" y="414.0"/>
      <point x="772.0" y="352.0" type="curve" smooth="yes"/>
      <point x="771.0" y="276.0"/>
      <point x="729.0" y="200.0"/>
      <point x="551.0" y="200.0" type="curve" smooth="yes"/>
      <point x="474.0" y="200.0"/>
      <point x="388.0" y="209.0"/>
      <point x="258.0" y="264.0" type="curve"/>
      <point x="379.0" y="163.0" type="line"/>
      <point x="275.0" y="359.0" type="line"/>
      <point x="100.0" y="331.0" type="line"/>
      <point x="95.0" y="301.0"/>
      <point x="92.0" y="265.0"/>
      <point x="92.0" y="244.0" type="curve" smooth="yes"/>
      <point x="92.0" y="104.0"/>
      <point x="212.0" y="59.0"/>
      <point x="344.0" y="23.0" type="curve"/>
      <point x="357.0" y="55.0" type="line"/>
      <point x="425.0" y="29.0"/>
      <point x="490.0" y="16.0"/>
    </contour>
    <contour>
      <point x="462.0" y="-282.0" type="line"/>
      <point x="631.0" y="-188.0" type="line"/>
      <point x="340.0" y="206.0" type="line"/>
      <point x="215.0" y="197.0" type="line"/>
    </contour>
    <contour>
      <point x="1036.0" y="-110.0" type="line"/>
      <point x="1451.0" y="276.0" type="line"/>
      <point x="1316.0" y="371.0" type="line"/>
      <point x="910.0" y="31.0" type="line"/>
    </contour>
    <contour>
      <point x="900.0" y="348.0" type="line"/>
      <point x="1006.0" y="329.0"/>
      <point x="1251.0" y="381.0"/>
      <point x="1342.0" y="447.0" type="curve"/>
      <point x="1307.0" y="636.0" type="line"/>
      <point x="1163.0" y="543.0"/>
      <point x="951.0" y="502.0"/>
      <point x="832.0" y="516.0" type="curve"/>
    </contour>
    <contour>
      <point x="655.0" y="785.0" type="line"/>
      <point x="862.0" y="785.0" type="line"/>
      <point x="862.0" y="1151.0" type="line"/>
      <point x="655.0" y="1151.0" type="line"/>
    </contour>
    <contour>
      <point x="-19.0" y="1104.0" type="line"/>
      <point x="1204.0" y="1104.0" type="line"/>
      <point x="1204.0" y="1287.0" type="line"/>
      <point x="-19.0" y="1287.0" type="line"/>
    </contour>
  </outline>
</glyph>
<glyph name="k_ra-deva" format="2">
  <advance width="1138.0"/>
  <anchor x="347.0" y="28.0" name="nukta"/>
  <outline>
    <contour>
      <point x="264.0" y="-74.0" type="line"/>
      <point x="780.0" y="362.0" type="line"/>
      <point x="700.0" y="458.0" type="line"/>
      <point x="144.091" y="72.091" type="line"/>
    </contour>
    <component base="k-deva"/>
  </outline>
</glyph>
<glyph name="k_ss-deva" format="2">
  <advance width="912.0"/>
  <outline>
    <contour>
      <point x="476.0" y="27.0" type="curve" smooth="yes"/>
      <point x="621.0" y="27.0"/>
      <point x="740.0" y="57.0"/>
      <point x="791.0" y="120.0" type="curve"/>
      <point x="711.0" y="289.0" type="line"/>
      <point x="672.0" y="228.0"/>
      <point x="583.0" y="202.0"/>
      <point x="491.0" y="202.0" type="curve"/>
      <point x="382.0" y="202.0"/>
      <point x="280.0" y="253.0"/>
      <point x="280.0" y="390.0" type="curve" smooth="yes"/>
      <point x="280.0" y="502.0"/>
      <point x="350.0" y="550.0"/>
      <point x="584.0" y="689.0" type="curve" smooth="yes"/>
      <point x="730.0" y="775.0"/>
      <point x="840.0" y="875.0"/>
      <point x="840.0" y="1033.0" type="curve" smooth="yes"/>
      <point x="840.0" y="1225.0"/>
      <point x="700.0" y="1319.0"/>
      <point x="496.0" y="1319.0" type="curve" smooth="yes"/>
      <point x="282.0" y="1319.0"/>
      <point x="147.0" y="1219.0"/>
      <point x="147.0" y="1038.0" type="curve" smooth="yes"/>
      <point x="147.0" y="932.0"/>
      <point x="187.0" y="836.0"/>
      <point x="335.0" y="731.0" type="curve"/>
      <point x="508.0" y="812.0" type="line"/>
      <point x="386.0" y="890.0"/>
      <point x="345.0" y="960.0"/>
      <point x="345.0" y="1020.0" type="curve" smooth="yes"/>
      <point x="345.0" y="1077.0"/>
      <point x="366.0" y="1145.0"/>
      <point x="488.0" y="1145.0" type="curve" smooth="yes"/>
      <point x="593.0" y="1145.0"/>
      <point x="636.0" y="1109.0"/>
      <point x="636.0" y="1026.0" type="curve" smooth="yes"/>
      <point x="636.0" y="944.0"/>
      <point x="587.0" y="887.0"/>
      <point x="437.0" y="807.0" type="curve" smooth="yes"/>
      <point x="141.0" y="649.0"/>
      <point x="58.0" y="571.0"/>
      <point x="58.0" y="390.0" type="curve" smooth="yes"/>
      <point x="58.0" y="132.0"/>
      <point x="285.0" y="27.0"/>
    </contour>
    <contour>
      <point x="787.0" y="-144.0" type="line"/>
      <point x="949.0" y="-45.0" type="line"/>
      <point x="760.0" y="214.0" type="line"/>
      <point x="590.0" y="187.0" type="line"/>
    </contour>
    <contour>
      <point x="693.0" y="69.0" type="line"/>
      <point x="789.0" y="119.0"/>
      <point x="845.0" y="163.0"/>
      <point x="848.0" y="232.0" type="curve" smooth="yes"/>
      <point x="851.0" y="297.0"/>
      <point x="770.0" y="397.0"/>
      <point x="618.0" y="440.0" type="curve"/>
      <point x="493.0" y="359.0" type="line"/>
      <point x="604.0" y="164.0" type="line"/>
    </contour>
    <contour>
      <point x="903.0" y="511.0" type="curve" smooth="yes"/>
      <point x="978.0" y="511.0"/>
      <point x="1058.0" y="525.0"/>
      <point x="1137.0" y="543.0" type="curve"/>
      <point x="1136.0" y="716.0" type="line"/>
      <point x="1049.0" y="697.0"/>
      <point x="971.0" y="686.0"/>
      <point x="909.0" y="686.0" type="curve" smooth="yes"/>
      <point x="825.0" y="686.0"/>
      <point x="721.0" y="710.0"/>
      <point x="587.0" y="779.0" type="curve"/>
      <point x="419.0" y="668.0" type="line"/>
      <point x="627.0" y="551.0"/>
      <point x="781.0" y="511.0"/>
    </contour>
    <contour>
      <point x="898.0" y="1104.0" type="line"/>
      <point x="946.0" y="1104.0" type="line"/>
      <point x="946.0" y="1287.0" type="line"/>
      <point x="898.0" y="1287.0" type="line"/>
    </contour>
  </outline>
</glyph>
<glyph name="k_ss_ra-deva" format="2">
  <advance width="912.0"/>
  <outline>
    <contour>
      <point x="924.0" y="157.0" type="line"/>
      <point x="1165.0" y="364.0" type="line"/>
      <point x="1103.0" y="499.0" type="line"/>
      <point x="815.0" y="309.0" type="line"/>
    </contour>
    <contour>
      <point x="898.0" y="1104.0" type="line"/>
      <point x="946.0" y="1104.0" type="line"/>
      <point x="946.0" y="1287.0" type="line"/>
      <point x="898.0" y="1287.0" type="line"/>
    </contour>
    <contour>
      <point x="416.0" y="27.0" type="curve" smooth="yes"/>
      <point x="516.0" y="27.0"/>
      <point x="634.0" y="57.0"/>
      <point x="685.0" y="120.0" type="curve"/>
      <point x="606.0" y="289.0" type="line"/>
      <point x="567.0" y="228.0"/>
      <point x="478.0" y="202.0"/>
      <point x="412.0" y="202.0" type="curve"/>
      <point x="362.0" y="202.0"/>
      <point x="280.0" y="253.0"/>
      <point x="280.0" y="370.0" type="curve" smooth="yes"/>
      <point x="280.0" y="502.0"/>
      <point x="350.0" y="550.0"/>
      <point x="584.0" y="689.0" type="curve" smooth="yes"/>
      <point x="730.0" y="775.0"/>
      <point x="840.0" y="875.0"/>
      <point x="840.0" y="1033.0" type="curve" smooth="yes"/>
      <point x="840.0" y="1225.0"/>
      <point x="700.0" y="1319.0"/>
      <point x="496.0" y="1319.0" type="curve" smooth="yes"/>
      <point x="282.0" y="1319.0"/>
      <point x="147.0" y="1219.0"/>
      <point x="147.0" y="1038.0" type="curve" smooth="yes"/>
      <point x="147.0" y="932.0"/>
      <point x="187.0" y="836.0"/>
      <point x="335.0" y="731.0" type="curve"/>
      <point x="508.0" y="812.0" type="line"/>
      <point x="386.0" y="890.0"/>
      <point x="345.0" y="960.0"/>
      <point x="345.0" y="1020.0" type="curve" smooth="yes"/>
      <point x="345.0" y="1077.0"/>
      <point x="366.0" y="1145.0"/>
      <point x="488.0" y="1145.0" type="curve" smooth="yes"/>
      <point x="593.0" y="1145.0"/>
      <point x="636.0" y="1109.0"/>
      <point x="636.0" y="1026.0" type="curve" smooth="yes"/>
      <point x="636.0" y="944.0"/>
      <point x="587.0" y="887.0"/>
      <point x="439.0" y="803.0" type="curve" smooth="yes"/>
      <point x="141.0" y="649.0"/>
      <point x="58.0" y="574.0"/>
      <point x="58.0" y="377.0" type="curve" smooth="yes"/>
      <point x="58.0" y="132.0"/>
      <point x="265.0" y="27.0"/>
    </contour>
    <contour>
      <point x="682.0" y="-144.0" type="line"/>
      <point x="844.0" y="-45.0" type="line"/>
      <point x="655.0" y="214.0" type="line"/>
      <point x="485.0" y="187.0" type="line"/>
    </contour>
    <contour>
      <point x="587.0" y="69.0" type="line"/>
      <point x="683.0" y="119.0"/>
      <point x="739.0" y="163.0"/>
      <point x="742.0" y="232.0" type="curve" smooth="yes"/>
      <point x="745.0" y="297.0"/>
      <point x="664.0" y="397.0"/>
      <point x="512.0" y="440.0" type="curve"/>
      <point x="387.0" y="359.0" type="line"/>
      <point x="498.0" y="164.0" type="line"/>
    </contour>
    <contour>
      <point x="882.0" y="511.0" type="curve" smooth="yes"/>
      <point x="956.0" y="511.0"/>
      <point x="1045.0" y="523.0"/>
      <point x="1147.0" y="542.0" type="curve"/>
      <point x="1137.0" y="715.0" type="line"/>
      <point x="1039.0" y="696.0"/>
      <point x="953.0" y="685.0"/>
      <point x="887.0" y="685.0" type="curve" smooth="yes"/>
      <point x="818.0" y="685.0"/>
      <point x="713.0" y="711.0"/>
      <point x="587.0" y="778.0" type="curve"/>
      <point x="419.0" y="667.0" type="line"/>
      <point x="621.0" y="553.0"/>
      <point x="774.0" y="511.0"/>
    </contour>
  </outline>
</glyph>
<glyph name="l_ja-deva" format="2">
  <advance width="2333.0"/>
  <anchor x="2058.0" y="27.0" name="bottom"/>
  <anchor x="2038.0" y="1288.0" name="candra"/>
  <anchor x="984.0" y="41.0" name="nukta"/>
  <anchor x="2055.0" y="1287.0" name="top"/>
  <outline>
    <contour>
      <point x="1558.0" y="691.0" type="line"/>
      <point x="2079.0" y="691.0" type="line"/>
      <point x="2079.0" y="878.0" type="line"/>
      <point x="1482.0" y="878.0" type="line"/>
    </contour>
    <contour>
      <point x="1948.0" y="0.0" type="line"/>
      <point x="2158.0" y="0.0" type="line"/>
      <point x="2158.0" y="1199.0" type="line"/>
      <point x="1948.0" y="1199.0" type="line"/>
    </contour>
    <contour>
      <point x="308.0" y="24.0" type="curve"/>
      <point x="456.0" y="151.0" type="line"/>
      <point x="345.0" y="293.0"/>
      <point x="260.0" y="423.0"/>
      <point x="260.0" y="567.0" type="curve" smooth="yes"/>
      <point x="260.0" y="707.0"/>
      <point x="329.0" y="746.0"/>
      <point x="408.0" y="746.0" type="curve" smooth="yes"/>
      <point x="512.0" y="746.0"/>
      <point x="583.0" y="659.0"/>
      <point x="660.0" y="536.0" type="curve"/>
      <point x="679.0" y="671.0" type="line"/>
      <point x="607.0" y="860.0"/>
      <point x="504.0" y="940.0"/>
      <point x="358.0" y="940.0" type="curve" smooth="yes"/>
      <point x="167.0" y="940.0"/>
      <point x="54.0" y="815.0"/>
      <point x="54.0" y="597.0" type="curve" smooth="yes"/>
      <point x="54.0" y="334.0"/>
      <point x="214.0" y="132.0"/>
    </contour>
    <contour>
      <point x="892.0" y="1104.0" type="line"/>
      <point x="2352.0" y="1104.0" type="line"/>
      <point x="2352.0" y="1287.0" type="line"/>
      <point x="892.0" y="1287.0" type="line"/>
    </contour>
    <contour>
      <point x="-19.0" y="1104.0" type="line"/>
      <point x="912.0" y="1104.0" type="line"/>
      <point x="912.0" y="1287.0" type="line"/>
      <point x="-19.0" y="1287.0" type="line"/>
    </contour>
    <contour>
      <point x="1570.0" y="752.0" type="curve"/>
      <point x="1482.0" y="878.0" type="line"/>
      <point x="1414.0" y="731.0" type="line"/>
      <point x="1530.0" y="678.0"/>
      <point x="1574.0" y="603.0"/>
      <point x="1574.0" y="515.0" type="curve" smooth="yes"/>
      <point x="1574.0" y="422.0"/>
      <point x="1522.0" y="365.0"/>
      <point x="1422.0" y="364.0" type="curve" smooth="yes"/>
      <point x="1218.0" y="362.0"/>
      <point x="1174.0" y="621.0"/>
      <point x="1156.0" y="715.0" type="curve" smooth="yes"/>
      <point x="1131.0" y="852.0"/>
      <point x="1036.0" y="943.0"/>
      <point x="883.0" y="943.0" type="curve" smooth="yes"/>
      <point x="678.0" y="943.0"/>
      <point x="554.0" y="772.0"/>
      <point x="554.0" y="577.0" type="curve" smooth="yes"/>
      <point x="554.0" y="530.0"/>
      <point x="559.0" y="485.0"/>
      <point x="576.0" y="445.0" type="curve"/>
      <point x="756.0" y="466.0" type="line"/>
      <point x="751.0" y="499.0"/>
      <point x="747.0" y="530.0"/>
      <point x="747.0" y="562.0" type="curve" smooth="yes"/>
      <point x="747.0" y="667.0"/>
      <point x="796.0" y="750.0"/>
      <point x="884.0" y="750.0" type="curve" smooth="yes"/>
      <point x="979.0" y="750.0"/>
      <point x="990.0" y="697.0"/>
      <point x="1012.0" y="577.0" type="curve" smooth="yes"/>
      <point x="1032.0" y="452.0"/>
      <point x="1124.0" y="167.0"/>
      <point x="1437.0" y="167.0" type="curve" smooth="yes"/>
      <point x="1640.0" y="167.0"/>
      <point x="1779.0" y="282.0"/>
      <point x="1779.0" y="465.0" type="curve" smooth="yes"/>
      <point x="1779.0" y="607.0"/>
      <point x="1713.0" y="678.0"/>
    </contour>
  </outline>
</glyph>
<glyph name="m_na-deva" format="2">
  <advance width="1185.0"/>
  <anchor x="904.0" y="0.0" name="bottom"/>
  <anchor x="725.0" y="1287.0" name="candra"/>
  <anchor x="299.0" y="82.0" name="nukta"/>
  <anchor x="904.0" y="1287.0" name="top"/>
  <outline>
    <contour>
      <point x="530.0" y="-80.0" type="line"/>
      <point x="578.0" y="-44.0"/>
      <point x="598.0" y="-8.0"/>
      <point x="600.0" y="25.0" type="curve" smooth="yes"/>
      <point x="602.0" y="55.0"/>
      <point x="592.0" y="84.0"/>
      <point x="577.0" y="108.0" type="curve" smooth="yes"/>
      <point x="542.0" y="166.0" type="line"/>
      <point x="526.0" y="105.0" type="line"/>
      <point x="961.0" y="443.0" type="line"/>
      <point x="830.0" y="531.0" type="line"/>
      <point x="238.0" y="151.0" type="line"/>
      <point x="307.0" y="12.0" type="line"/>
    </contour>
    <component base="ma-deva"/>
  </outline>
</glyph>
<glyph name="n_ca-deva" format="2">
  <advance width="1805.0"/>
  <anchor x="1465.0" y="27.0" name="bottom"/>
  <anchor x="1136.0" y="1287.0" name="candra"/>
  <anchor x="179.0" y="84.0" name="nukta"/>
  <anchor x="1525.0" y="1287.0" name="top"/>
  <outline>
    <contour>
      <point x="259.0" y="257.0" type="line"/>
      <point x="406.0" y="257.0"/>
      <point x="429.0" y="338.0"/>
      <point x="429.0" y="438.0" type="curve" smooth="yes"/>
      <point x="429.0" y="645.0" type="line"/>
      <point x="105.0" y="645.0" type="line"/>
      <point x="105.0" y="481.0" type="line"/>
    </contour>
    <contour>
      <point x="230.0" y="459.0" type="line"/>
      <point x="837.0" y="459.0" type="line"/>
      <point x="837.0" y="645.0" type="line"/>
      <point x="230.0" y="645.0" type="line"/>
    </contour>
    <contour>
      <point x="1157.0" y="200.0" type="curve" smooth="yes"/>
      <point x="1351.0" y="200.0"/>
      <point x="1455.0" y="284.0"/>
      <point x="1548.0" y="391.0" type="curve"/>
      <point x="1518.0" y="599.0" type="line"/>
      <point x="1434.0" y="479.0"/>
      <point x="1333.0" y="379.0"/>
      <point x="1172.0" y="380.0" type="curve" smooth="yes"/>
      <point x="1058.0" y="381.0"/>
      <point x="994.0" y="455.0"/>
      <point x="994.0" y="557.0" type="curve" smooth="yes"/>
      <point x="994.0" y="661.0"/>
      <point x="1105.0" y="765.0"/>
      <point x="1251.0" y="751.0" type="curve"/>
      <point x="1222.0" y="823.0" type="line"/>
      <point x="1079.0" y="813.0" type="line"/>
      <point x="870.0" y="786.0"/>
      <point x="780.0" y="671.0"/>
      <point x="780.0" y="531.0" type="curve" smooth="yes"/>
      <point x="780.0" y="348.0"/>
      <point x="906.0" y="200.0"/>
    </contour>
    <contour>
      <point x="644.0" y="751.0" type="line"/>
      <point x="1292.0" y="751.0" type="line"/>
      <point x="1292.0" y="928.0" type="line"/>
      <point x="644.0" y="928.0" type="line"/>
    </contour>
    <contour>
      <point x="1420.0" y="0.0" type="line"/>
      <point x="1630.0" y="0.0" type="line"/>
      <point x="1630.0" y="1176.0" type="line"/>
      <point x="1420.0" y="1176.0" type="line"/>
    </contour>
    <contour>
      <point x="-19.0" y="1104.0" type="line"/>
      <point x="1824.0" y="1104.0" type="line"/>
      <point x="1824.0" y="1287.0" type="line"/>
      <point x="-19.0" y="1287.0" type="line"/>
    </contour>
  </outline>
</glyph>
<glyph name="n_n-deva" format="2">
  <advance width="708.0"/>
  <outline>
    <contour>
      <point x="811.0" y="648.0" type="line"/>
      <point x="172.0" y="326.0" type="line"/>
      <point x="235.0" y="181.0" type="line"/>
      <point x="444.0" y="64.0" type="line"/>
      <point x="561.0" y="122.0"/>
      <point x="546.0" y="200.0"/>
      <point x="504.0" y="278.0" type="curve" smooth="yes"/>
      <point x="466.0" y="329.909" type="line"/>
      <point x="465.0" y="276.0" type="line"/>
      <point x="886.0" y="498.0" type="line"/>
    </contour>
    <contour>
      <point x="182.0" y="989.0" type="line"/>
      <point x="122.0" y="858.0" type="line"/>
      <point x="172.0" y="629.0" type="line"/>
      <point x="306.0" y="586.0"/>
      <point x="343.0" y="649.0"/>
      <point x="371.0" y="741.0" type="curve" smooth="yes"/>
      <point x="391.0" y="803.0" type="line"/>
      <point x="339.0" y="774.0" type="line"/>
      <point x="923.0" y="588.0" type="line"/>
      <point x="933.0" y="755.0" type="line"/>
    </contour>
    <contour>
      <point x="732.0" y="1287.0" type="line"/>
      <point x="-19.0" y="1287.0" type="line"/>
      <point x="-19.0" y="1104.0" type="line"/>
      <point x="732.0" y="1104.0" type="line"/>
    </contour>
  </outline>
</glyph>
<glyph name="nine.lf" format="2">
  <advance width="1104.0"/>
  <outline>
    <contour>
      <point x="505.0" y="-25.0" type="curve" smooth="yes"/>
      <point x="788.0" y="-25.0"/>
      <point x="974.0" y="203.0"/>
      <point x="974.0" y="699.0" type="curve" smooth="yes"/>
      <point x="974.0" y="1177.0"/>
      <point x="781.0" y="1367.0"/>
      <point x="512.0" y="1367.0" type="curve" smooth="yes"/>
      <point x="281.0" y="1367.0"/>
      <point x="103.0" y="1188.0"/>
      <point x="103.0" y="930.0" type="curve" smooth="yes"/>
      <point x="103.0" y="660.0"/>
      <point x="256.0" y="497.0"/>
      <point x="481.0" y="497.0" type="curve" smooth="yes"/>
      <point x="578.0" y="497.0"/>
      <point x="699.0" y="548.0"/>
      <point x="770.0" y="647.0" type="curve"/>
      <point x="764.0" y="274.0"/>
      <point x="663.0" y="155.0"/>
      <point x="494.0" y="155.0" type="curve" smooth="yes"/>
      <point x="414.0" y="155.0"/>
      <point x="319.0" y="196.0"/>
      <point x="276.0" y="248.0" type="curve"/>
      <point x="166.0" y="110.0" type="line"/>
      <point x="254.0" y="24.0"/>
      <point x="354.0" y="-25.0"/>
    </contour>
    <contour>
      <point x="521.0" y="657.0" type="curve" smooth="yes"/>
      <point x="378.0" y="657.0"/>
      <point x="307.0" y="773.0"/>
      <point x="307.0" y="930.0" type="curve" smooth="yes"/>
      <point x="307.0" y="1093.0"/>
      <point x="399.0" y="1199.0"/>
      <point x="516.0" y="1199.0" type="curve" smooth="yes"/>
      <point x="660.0" y="1199.0"/>
      <point x="759.0" y="1082.0"/>
      <point x="764.0" y="806.0" type="curve"/>
      <point x="687.0" y="693.0"/>
      <point x="597.0" y="657.0"/>
    </contour>
  </outline>
</glyph>
<glyph name="nn_ra-deva" format="2">
  <advance width="1040.0"/>
  <outline>
    <contour>
      <point x="748.0" y="-33.0" type="line"/>
      <point x="1328.0" y="419.0" type="line"/>
      <point x="1192.0" y="529.0" type="line"/>
      <point x="622.0" y="119.0" type="line"/>
    </contour>
    <component base="nn-deva"/>
  </outline>
</glyph>
<glyph name="one.lf" format="2">
  <advance width="788.0"/>
  <outline>
    <contour>
      <point x="335.0" y="0.0" type="line"/>
      <point x="554.0" y="0.0" type="line"/>
      <point x="554.0" y="1343.0" type="line"/>
      <point x="389.0" y="1343.0" type="line"/>
      <point x="310.0" y="1295.0"/>
      <point x="221.0" y="1261.0"/>
      <point x="94.0" y="1238.0" type="curve"/>
      <point x="94.0" y="1090.0" type="line"/>
      <point x="335.0" y="1110.0" type="line"/>
    </contour>
  </outline>
</glyph>
<glyph name="one.tf" format="2">
  <advance width="1003.0"/>
  <outline>
    <contour>
      <point x="120.0" y="0.0" type="line"/>
      <point x="891.0" y="0.0" type="line"/>
      <point x="891.0" y="175.0" type="line"/>
      <point x="633.0" y="175.0" type="line"/>
      <point x="633.0" y="1179.0" type="line"/>
      <point x="467.0" y="1179.0" type="line"/>
      <point x="388.0" y="1131.0"/>
      <point x="300.0" y="1097.0"/>
      <point x="172.0" y="1074.0" type="curve"/>
      <point x="172.0" y="934.0" type="line"/>
      <point x="413.0" y="947.0" type="line"/>
      <point x="413.0" y="175.0" type="line"/>
      <point x="120.0" y="175.0" type="line"/>
    </contour>
  </outline>
</glyph>
<glyph name="ph_na-deva" format="2">
  <advance width="1608.0"/>
  <anchor x="3.0" y="376.0" name="nukta"/>
  <anchor x="873.0" y="0.0" name="bottom"/>
  <anchor x="873.0" y="1287.0" name="candra"/>
  <anchor x="869.0" y="1287.0" name="top"/>
  <outline>
    <contour>
      <point x="350.0" y="-100.0" type="line"/>
      <point x="398.0" y="-64.0"/>
      <point x="418.0" y="-28.0"/>
      <point x="420.0" y="5.0" type="curve" smooth="yes"/>
      <point x="422.0" y="35.0"/>
      <point x="412.0" y="64.0"/>
      <point x="397.0" y="88.0" type="curve" smooth="yes"/>
      <point x="362.0" y="146.0" type="line"/>
      <point x="346.0" y="85.0" type="line"/>
      <point x="781.0" y="423.0" type="line"/>
      <point x="650.0" y="511.0" type="line"/>
      <point x="58.0" y="131.0" type="line"/>
      <point x="127.0" y="-8.0" type="line"/>
    </contour>
    <component base="pha-deva"/>
  </outline>
</glyph>
<glyph name="q_fa-deva" format="2">
  <advance width="2695.0"/>
  <anchor x="785.0" y="28.0" name="bottom"/>
  <anchor x="783.0" y="1288.0" name="candra"/>
  <anchor x="1956.0" y="1287.0" name="top"/>
  <outline>
    <contour>
      <point x="690.0" y="0.0" type="line"/>
      <point x="900.0" y="0.0" type="line"/>
      <point x="900.0" y="1185.0" type="line"/>
      <point x="690.0" y="1185.0" type="line"/>
    </contour>
    <contour>
      <point x="408.0" y="196.0" type="curve" smooth="yes"/>
      <point x="557.0" y="196.0"/>
      <point x="711.0" y="264.0"/>
      <point x="788.0" y="391.0" type="curve"/>
      <point x="729.0" y="535.0" type="line"/>
      <point x="656.0" y="440.0"/>
      <point x="552.0" y="375.0"/>
      <point x="427.0" y="375.0" type="curve" smooth="yes"/>
      <point x="320.0" y="375.0"/>
      <point x="266.0" y="415.0"/>
      <point x="266.0" y="553.0" type="curve" smooth="yes"/>
      <point x="266.0" y="704.0"/>
      <point x="347.0" y="747.0"/>
      <point x="466.0" y="751.0" type="curve" smooth="yes"/>
      <point x="549.0" y="753.0"/>
      <point x="663.0" y="737.0"/>
      <point x="788.0" y="675.0" type="curve"/>
      <point x="788.0" y="789.0" type="line"/>
      <point x="720.0" y="877.0"/>
      <point x="595.0" y="941.0"/>
      <point x="427.0" y="941.0" type="curve" smooth="yes"/>
      <point x="198.0" y="941.0"/>
      <point x="55.0" y="820.0"/>
      <point x="55.0" y="564.0" type="curve" smooth="yes"/>
      <point x="55.0" y="399.0"/>
      <point x="134.0" y="196.0"/>
    </contour>
    <contour>
      <point x="1276.0" y="632.0" type="curve"/>
      <point x="1422.0" y="761.0" type="line"/>
      <point x="1372.0" y="840.0"/>
      <point x="1287.0" y="887.0"/>
      <point x="1174.0" y="887.0" type="curve" smooth="yes"/>
      <point x="1036.0" y="887.0"/>
      <point x="933.0" y="831.0"/>
      <point x="830.0" y="708.0" type="curve"/>
      <point x="830.0" y="404.0" type="line"/>
      <point x="994.0" y="634.0"/>
      <point x="1097.0" y="701.0"/>
      <point x="1165.0" y="701.0" type="curve" smooth="yes"/>
      <point x="1221.0" y="701.0"/>
      <point x="1260.0" y="678.0"/>
    </contour>
    <contour>
      <point x="175.0" y="88.0" type="curve" smooth="yes"/>
      <point x="92.0" y="88.0"/>
      <point x="56.0" y="53.0"/>
      <point x="56.0" y="-30.0" type="curve" smooth="yes"/>
      <point x="56.0" y="-112.0"/>
      <point x="92.0" y="-147.0"/>
      <point x="175.0" y="-147.0" type="curve" smooth="yes"/>
      <point x="258.0" y="-147.0"/>
      <point x="294.0" y="-112.0"/>
      <point x="294.0" y="-30.0" type="curve" smooth="yes"/>
      <point x="294.0" y="53.0"/>
      <point x="258.0" y="88.0"/>
    </contour>
    <contour>
      <point x="1592.0" y="314.0" type="curve" smooth="yes"/>
      <point x="1730.0" y="314.0"/>
      <point x="1882.0" y="393.0"/>
      <point x="1961.0" y="550.0" type="curve"/>
      <point x="1915.0" y="713.0" type="line"/>
      <point x="1841.0" y="583.0"/>
      <point x="1732.0" y="506.0"/>
      <point x="1605.0" y="505.0" type="curve" smooth="yes"/>
      <point x="1486.0" y="504.0"/>
      <point x="1453.0" y="559.0"/>
      <point x="1453.0" y="695.0" type="curve" smooth="yes"/>
      <point x="1453.0" y="1161.0" type="line"/>
      <point x="1239.0" y="1161.0" type="line"/>
      <point x="1239.0" y="704.0" type="line" smooth="yes"/>
      <point x="1239.0" y="447.0"/>
      <point x="1364.0" y="314.0"/>
    </contour>
    <contour>
      <point x="1854.0" y="0.0" type="line"/>
      <point x="2065.0" y="0.0" type="line"/>
      <point x="2065.0" y="1199.0" type="line"/>
      <point x="1854.0" y="1199.0" type="line"/>
    </contour>
    <contour>
      <point x="2462.0" y="125.0" type="line"/>
      <point x="2573.0" y="244.0"/>
      <point x="2639.0" y="390.0"/>
      <point x="2639.0" y="547.0" type="curve" smooth="yes"/>
      <point x="2639.0" y="749.0"/>
      <point x="2530.0" y="887.0"/>
      <point x="2338.0" y="887.0" type="curve" smooth="yes"/>
      <point x="2199.0" y="887.0"/>
      <point x="2097.0" y="831.0"/>
      <point x="1993.0" y="708.0" type="curve"/>
      <point x="1965.0" y="416.0" type="line"/>
      <point x="2132.0" y="631.0"/>
      <point x="2248.0" y="701.0"/>
      <point x="2328.0" y="701.0" type="curve" smooth="yes"/>
      <point x="2405.0" y="701.0"/>
      <point x="2449.0" y="656.0"/>
      <point x="2449.0" y="568.0" type="curve" smooth="yes"/>
      <point x="2449.0" y="462.0"/>
      <point x="2393.0" y="360.0"/>
      <point x="2309.0" y="241.0" type="curve"/>
    </contour>
    <contour>
      <point x="1436.0" y="205.0" type="curve" smooth="yes"/>
      <point x="1353.0" y="205.0"/>
      <point x="1317.0" y="170.0"/>
      <point x="1317.0" y="87.0" type="curve" smooth="yes"/>
      <point x="1317.0" y="5.0"/>
      <point x="1353.0" y="-30.0"/>
      <point x="1436.0" y="-30.0" type="curve" smooth="yes"/>
      <point x="1519.0" y="-30.0"/>
      <point x="1555.0" y="5.0"/>
      <point x="1555.0" y="87.0" type="curve" smooth="yes"/>
      <point x="1555.0" y="170.0"/>
      <point x="1519.0" y="205.0"/>
    </contour>
    <contour>
      <point x="-19.0" y="1104.0" type="line"/>
      <point x="2714.0" y="1104.0" type="line"/>
      <point x="2714.0" y="1287.0" type="line"/>
      <point x="-19.0" y="1287.0" type="line"/>
    </contour>
  </outline>
</glyph>
<glyph name="q_ma-deva" format="2">
  <advance width="2272.0"/>
  <anchor x="1991.0" y="27.0" name="bottom"/>
  <anchor x="1702.0" y="1287.0" name="candra"/>
  <anchor x="1386.0" y="82.0" name="nukta"/>
  <anchor x="1991.0" y="1287.0" name="top"/>
  <outline>
    <contour>
      <point x="690.0" y="0.0" type="line"/>
      <point x="900.0" y="0.0" type="line"/>
      <point x="900.0" y="1185.0" type="line"/>
      <point x="690.0" y="1185.0" type="line"/>
    </contour>
    <contour>
      <point x="408.0" y="196.0" type="curve" smooth="yes"/>
      <point x="557.0" y="196.0"/>
      <point x="711.0" y="264.0"/>
      <point x="788.0" y="391.0" type="curve"/>
      <point x="729.0" y="535.0" type="line"/>
      <point x="656.0" y="440.0"/>
      <point x="552.0" y="375.0"/>
      <point x="427.0" y="375.0" type="curve" smooth="yes"/>
      <point x="320.0" y="375.0"/>
      <point x="266.0" y="415.0"/>
      <point x="266.0" y="553.0" type="curve" smooth="yes"/>
      <point x="266.0" y="704.0"/>
      <point x="347.0" y="747.0"/>
      <point x="466.0" y="751.0" type="curve" smooth="yes"/>
      <point x="549.0" y="753.0"/>
      <point x="663.0" y="737.0"/>
      <point x="788.0" y="675.0" type="curve"/>
      <point x="788.0" y="789.0" type="line"/>
      <point x="720.0" y="877.0"/>
      <point x="595.0" y="941.0"/>
      <point x="427.0" y="941.0" type="curve" smooth="yes"/>
      <point x="198.0" y="941.0"/>
      <point x="55.0" y="820.0"/>
      <point x="55.0" y="564.0" type="curve" smooth="yes"/>
      <point x="55.0" y="399.0"/>
      <point x="134.0" y="196.0"/>
    </contour>
    <contour>
      <point x="1276.0" y="632.0" type="curve"/>
      <point x="1422.0" y="761.0" type="line"/>
      <point x="1372.0" y="840.0"/>
      <point x="1287.0" y="887.0"/>
      <point x="1174.0" y="887.0" type="curve" smooth="yes"/>
      <point x="1036.0" y="887.0"/>
      <point x="933.0" y="831.0"/>
      <point x="830.0" y="708.0" type="curve"/>
      <point x="830.0" y="404.0" type="line"/>
      <point x="994.0" y="634.0"/>
      <point x="1097.0" y="701.0"/>
      <point x="1165.0" y="701.0" type="curve" smooth="yes"/>
      <point x="1221.0" y="701.0"/>
      <point x="1260.0" y="678.0"/>
    </contour>
    <contour>
      <point x="175.0" y="88.0" type="curve" smooth="yes"/>
      <point x="92.0" y="88.0"/>
      <point x="56.0" y="53.0"/>
      <point x="56.0" y="-30.0" type="curve" smooth="yes"/>
      <point x="56.0" y="-112.0"/>
      <point x="92.0" y="-147.0"/>
      <point x="175.0" y="-147.0" type="curve" smooth="yes"/>
      <point x="258.0" y="-147.0"/>
      <point x="294.0" y="-112.0"/>
      <point x="294.0" y="-30.0" type="curve" smooth="yes"/>
      <point x="294.0" y="53.0"/>
      <point x="258.0" y="88.0"/>
    </contour>
    <contour>
      <point x="1886.0" y="1.0" type="line"/>
      <point x="2096.0" y="1.0" type="line"/>
      <point x="2096.0" y="1152.0" type="line"/>
      <point x="1886.0" y="1152.0" type="line"/>
    </contour>
    <contour>
      <point x="1317.0" y="286.0" type="line"/>
      <point x="1457.0" y="287.0"/>
      <point x="1485.0" y="354.0"/>
      <point x="1485.0" y="435.0" type="curve" smooth="yes"/>
      <point x="1485.0" y="659.0" type="line"/>
      <point x="1319.0" y="659.0" type="line"/>
      <point x="1132.0" y="635.0" type="line"/>
      <point x="1132.0" y="492.0" type="line"/>
    </contour>
    <contour>
      <point x="1274.0" y="382.0" type="line"/>
      <point x="1483.0" y="572.0" type="line"/>
      <point x="1484.0" y="1152.0" type="line"/>
      <point x="1274.0" y="1152.0" type="line"/>
    </contour>
    <contour>
      <point x="1280.0" y="469.0" type="line"/>
      <point x="2056.0" y="469.0" type="line"/>
      <point x="2056.0" y="655.0" type="line"/>
      <point x="1280.0" y="655.0" type="line"/>
    </contour>
    <contour>
      <point x="-19.0" y="1104.0" type="line"/>
      <point x="2290.0" y="1104.0" type="line"/>
      <point x="2290.0" y="1287.0" type="line"/>
      <point x="-19.0" y="1287.0" type="line"/>
    </contour>
  </outline>
</glyph>
<glyph name="q_pha-deva" format="2">
  <advance width="2691.0"/>
  <anchor x="1956.0" y="27.0" name="bottom"/>
  <anchor x="1547.0" y="1287.0" name="candra"/>
  <anchor x="1243.0" y="117.0" name="nukta"/>
  <anchor x="1952.0" y="1287.0" name="top"/>
  <outline>
    <contour>
      <point x="690.0" y="0.0" type="line"/>
      <point x="900.0" y="0.0" type="line"/>
      <point x="900.0" y="1185.0" type="line"/>
      <point x="690.0" y="1185.0" type="line"/>
    </contour>
    <contour>
      <point x="408.0" y="196.0" type="curve" smooth="yes"/>
      <point x="557.0" y="196.0"/>
      <point x="711.0" y="264.0"/>
      <point x="788.0" y="391.0" type="curve"/>
      <point x="729.0" y="535.0" type="line"/>
      <point x="656.0" y="440.0"/>
      <point x="552.0" y="375.0"/>
      <point x="427.0" y="375.0" type="curve" smooth="yes"/>
      <point x="320.0" y="375.0"/>
      <point x="266.0" y="415.0"/>
      <point x="266.0" y="553.0" type="curve" smooth="yes"/>
      <point x="266.0" y="704.0"/>
      <point x="347.0" y="747.0"/>
      <point x="466.0" y="751.0" type="curve" smooth="yes"/>
      <point x="549.0" y="753.0"/>
      <point x="663.0" y="737.0"/>
      <point x="788.0" y="675.0" type="curve"/>
      <point x="788.0" y="789.0" type="line"/>
      <point x="720.0" y="877.0"/>
      <point x="595.0" y="941.0"/>
      <point x="427.0" y="941.0" type="curve" smooth="yes"/>
      <point x="198.0" y="941.0"/>
      <point x="55.0" y="820.0"/>
      <point x="55.0" y="564.0" type="curve" smooth="yes"/>
      <point x="55.0" y="399.0"/>
      <point x="134.0" y="196.0"/>
    </contour>
    <contour>
      <point x="1276.0" y="632.0" type="curve"/>
      <point x="1422.0" y="761.0" type="line"/>
      <point x="1372.0" y="840.0"/>
      <point x="1287.0" y="887.0"/>
      <point x="1174.0" y="887.0" type="curve" smooth="yes"/>
      <point x="1036.0" y="887.0"/>
      <point x="933.0" y="831.0"/>
      <point x="830.0" y="708.0" type="curve"/>
      <point x="830.0" y="404.0" type="line"/>
      <point x="994.0" y="634.0"/>
      <point x="1097.0" y="701.0"/>
      <point x="1165.0" y="701.0" type="curve" smooth="yes"/>
      <point x="1221.0" y="701.0"/>
      <point x="1260.0" y="678.0"/>
    </contour>
    <contour>
      <point x="175.0" y="88.0" type="curve" smooth="yes"/>
      <point x="92.0" y="88.0"/>
      <point x="56.0" y="53.0"/>
      <point x="56.0" y="-30.0" type="curve" smooth="yes"/>
      <point x="56.0" y="-112.0"/>
      <point x="92.0" y="-147.0"/>
      <point x="175.0" y="-147.0" type="curve" smooth="yes"/>
      <point x="258.0" y="-147.0"/>
      <point x="294.0" y="-112.0"/>
      <point x="294.0" y="-30.0" type="curve" smooth="yes"/>
      <point x="294.0" y="53.0"/>
      <point x="258.0" y="88.0"/>
    </contour>
    <contour>
      <point x="-19.0" y="1104.0" type="line"/>
      <point x="2246.0" y="1104.0" type="line"/>
      <point x="2246.0" y="1287.0" type="line"/>
      <point x="-19.0" y="1287.0" type="line"/>
    </contour>
    <contour>
      <point x="1588.0" y="314.0" type="curve" smooth="yes"/>
      <point x="1726.0" y="314.0"/>
      <point x="1878.0" y="393.0"/>
      <point x="1957.0" y="550.0" type="curve"/>
      <point x="1911.0" y="713.0" type="line"/>
      <point x="1837.0" y="583.0"/>
      <point x="1728.0" y="506.0"/>
      <point x="1601.0" y="505.0" type="curve" smooth="yes"/>
      <point x="1482.0" y="504.0"/>
      <point x="1449.0" y="559.0"/>
      <point x="1449.0" y="695.0" type="curve" smooth="yes"/>
      <point x="1449.0" y="1161.0" type="line"/>
      <point x="1235.0" y="1161.0" type="line"/>
      <point x="1235.0" y="704.0" type="line" smooth="yes"/>
      <point x="1235.0" y="447.0"/>
      <point x="1360.0" y="314.0"/>
    </contour>
    <contour>
      <point x="1850.0" y="0.0" type="line"/>
      <point x="2061.0" y="0.0" type="line"/>
      <point x="2061.0" y="1199.0" type="line"/>
      <point x="1850.0" y="1199.0" type="line"/>
    </contour>
    <contour>
      <point x="2458.0" y="125.0" type="line"/>
      <point x="2569.0" y="244.0"/>
      <point x="2635.0" y="390.0"/>
      <point x="2635.0" y="547.0" type="curve" smooth="yes"/>
      <point x="2635.0" y="749.0"/>
      <point x="2526.0" y="887.0"/>
      <point x="2334.0" y="887.0" type="curve" smooth="yes"/>
      <point x="2195.0" y="887.0"/>
      <point x="2093.0" y="831.0"/>
      <point x="1989.0" y="708.0" type="curve"/>
      <point x="1961.0" y="416.0" type="line"/>
      <point x="2128.0" y="631.0"/>
      <point x="2244.0" y="701.0"/>
      <point x="2324.0" y="701.0" type="curve" smooth="yes"/>
      <point x="2401.0" y="701.0"/>
      <point x="2445.0" y="656.0"/>
      <point x="2445.0" y="568.0" type="curve" smooth="yes"/>
      <point x="2445.0" y="462.0"/>
      <point x="2389.0" y="360.0"/>
      <point x="2305.0" y="241.0" type="curve"/>
    </contour>
    <contour>
      <point x="1064.0" y="1104.0" type="line"/>
      <point x="2710.0" y="1104.0" type="line"/>
      <point x="2710.0" y="1287.0" type="line"/>
      <point x="1064.0" y="1287.0" type="line"/>
    </contour>
  </outline>
</glyph>
<glyph name="reph_candraBindu-deva" format="2">
  <advance width="540.0"/>
  <anchor x="297.0" y="1287.0" name="_top"/>
  <anchor x="457.026" y="1849.0" name="top"/>
  <outline>
    <contour>
      <point x="266.0" y="1251.0" type="curve"/>
      <point x="336.0" y="1280.0" type="line"/>
      <point x="319.0" y="1330.0"/>
      <point x="305.0" y="1398.0"/>
      <point x="305.0" y="1448.0" type="curve" smooth="yes"/>
      <point x="305.0" y="1541.0"/>
      <point x="352.0" y="1669.0"/>
      <point x="506.0" y="1669.0" type="curve" smooth="yes"/>
      <point x="549.0" y="1669.0"/>
      <point x="604.0" y="1661.0"/>
      <point x="667.0" y="1633.0" type="curve"/>
      <point x="712.0" y="1794.0" type="line"/>
      <point x="649.0" y="1825.0"/>
      <point x="565.0" y="1849.0"/>
      <point x="489.0" y="1849.0" type="curve" smooth="yes"/>
      <point x="261.0" y="1849.0"/>
      <point x="176.0" y="1664.0"/>
      <point x="176.0" y="1503.0" type="curve" smooth="yes"/>
      <point x="176.0" y="1442.0"/>
      <point x="188.0" y="1336.0"/>
    </contour>
    <component base="candraBindu-deva" xScale="0.60348" yScale="0.60348" xOffset="382.0" yOffset="413.0"/>
  </outline>
</glyph>
<glyph name="ringcomb.cap" format="2">
  <anchor x="218.0" y="1340.0" name="_top"/>
  <anchor x="218.0" y="1808.0" name="top"/>
  <outline>
    <contour>
      <point x="218.0" y="1430.0" type="curve" smooth="yes"/>
      <point x="339.0" y="1430.0"/>
      <point x="426.0" y="1503.0"/>
      <point x="426.0" y="1619.0" type="curve" smooth="yes"/>
      <point x="426.0" y="1733.0"/>
      <point x="339.0" y="1808.0"/>
      <point x="218.0" y="1808.0" type="curve" smooth="yes"/>
      <point x="95.0" y="1808.0"/>
      <point x="10.0" y="1733.0"/>
      <point x="10.0" y="1619.0" type="curve" smooth="yes"/>
      <point x="10.0" y="1503.0"/>
      <point x="95.0" y="1430.0"/>
    </contour>
    <contour>
      <point x="218.0" y="1520.0" type="curve" smooth="yes"/>
      <point x="167.0" y="1520.0"/>
      <point x="126.0" y="1557.0"/>
      <point x="126.0" y="1619.0" type="curve" smooth="yes"/>
      <point x="126.0" y="1678.0"/>
      <point x="167.0" y="1716.0"/>
      <point x="218.0" y="1716.0" type="curve" smooth="yes"/>
      <point x="266.0" y="1716.0"/>
      <point x="308.0" y="1678.0"/>
      <point x="308.0" y="1619.0" type="curve" smooth="yes"/>
      <point x="308.0" y="1557.0"/>
      <point x="266.0" y="1520.0"/>
    </contour>
  </outline>
</glyph>
<glyph name="s_ra-deva" format="2">
  <advance width="806.0"/>
  <outline>
    <contour>
      <point x="701.0" y="164.0" type="line"/>
      <point x="1032.0" y="424.0" type="line"/>
      <point x="968.0" y="537.0" type="line"/>
      <point x="584.0" y="314.0" type="line"/>
    </contour>
    <contour>
      <point x="476.0" y="-36.0" type="line"/>
      <point x="646.0" y="86.0" type="line"/>
      <point x="294.0" y="557.0" type="line"/>
      <point x="287.0" y="547.0" type="line"/>
      <point x="303.0" y="537.0"/>
      <point x="328.0" y="532.0"/>
      <point x="354.0" y="532.0" type="curve" smooth="yes"/>
      <point x="467.0" y="532.0"/>
      <point x="560.0" y="618.0"/>
      <point x="560.0" y="795.0" type="curve" smooth="yes"/>
      <point x="560.0" y="1176.0" type="line"/>
      <point x="350.0" y="1176.0" type="line"/>
      <point x="350.0" y="801.0" type="line" smooth="yes"/>
      <point x="350.0" y="729.0"/>
      <point x="328.0" y="692.0"/>
      <point x="279.0" y="692.0" type="curve" smooth="yes"/>
      <point x="244.0" y="692.0"/>
      <point x="214.0" y="706.0"/>
      <point x="176.0" y="738.0" type="curve"/>
      <point x="41.0" y="627.0" type="line"/>
    </contour>
    <contour>
      <point x="784.0" y="486.0" type="curve" smooth="yes"/>
      <point x="849.0" y="486.0"/>
      <point x="912.0" y="492.0"/>
      <point x="968.0" y="502.0" type="curve"/>
      <point x="968.0" y="697.0" type="line"/>
      <point x="911.0" y="685.0"/>
      <point x="842.0" y="674.0"/>
      <point x="752.0" y="674.0" type="curve" smooth="yes"/>
      <point x="667.0" y="674.0"/>
      <point x="559.0" y="688.0"/>
      <point x="476.0" y="724.0" type="curve"/>
      <point x="415.0" y="559.0" type="line"/>
      <point x="521.0" y="509.0"/>
      <point x="656.0" y="486.0"/>
    </contour>
    <contour>
      <point x="-47.0" y="1104.0" type="line"/>
      <point x="810.0" y="1104.0" type="line"/>
      <point x="810.0" y="1287.0" type="line"/>
      <point x="-47.0" y="1287.0" type="line"/>
    </contour>
  </outline>
</glyph>
<glyph name="seven.lf" format="2">
  <advance width="1025.0"/>
  <outline>
    <contour>
      <point x="328.0" y="0.0" type="curve"/>
      <point x="551.0" y="0.0" type="line"/>
      <point x="574.0" y="509.0"/>
      <point x="625.0" y="825.0"/>
      <point x="927.0" y="1208.0" type="curve"/>
      <point x="927.0" y="1343.0" type="line"/>
      <point x="90.0" y="1343.0" type="line"/>
      <point x="90.0" y="1156.0" type="line"/>
      <point x="687.0" y="1156.0" type="line"/>
      <point x="438.0" y="805.0"/>
      <point x="352.0" y="469.0"/>
    </contour>
  </outline>
</glyph>
<glyph name="seven.osf" format="2">
  <advance width="1022.0"/>
  <outline>
    <contour>
      <point x="322.0" y="-155.0" type="curve"/>
      <point x="545.0" y="-155.0" type="line"/>
      <point x="560.0" y="366.0"/>
      <point x="625.0" y="656.0"/>
      <point x="927.0" y="1045.0" type="curve"/>
      <point x="927.0" y="1179.0" type="line"/>
      <point x="90.0" y="1179.0" type="line"/>
      <point x="90.0" y="993.0" type="line"/>
      <point x="687.0" y="993.0" type="line"/>
      <point x="438.0" y="635.0"/>
      <point x="338.0" y="325.0"/>
    </contour>
  </outline>
</glyph>
<glyph name="seven.tf" format="2">
  <advance width="1003.0"/>
  <outline>
    <contour>
      <point x="328.0" y="-155.0" type="curve"/>
      <point x="552.0" y="-155.0" type="line"/>
      <point x="568.0" y="359.0"/>
      <point x="630.0" y="658.0"/>
      <point x="936.0" y="1044.0" type="curve"/>
      <point x="936.0" y="1179.0" type="line"/>
      <point x="70.0" y="1179.0" type="line"/>
      <point x="70.0" y="993.0" type="line"/>
      <point x="695.0" y="993.0" type="line"/>
      <point x="442.0" y="638.0"/>
      <point x="345.0" y="319.0"/>
    </contour>
  </outline>
</glyph>
<glyph name="six.tf" format="2">
  <advance width="1003.0"/>
  <outline>
    <contour>
      <point x="530.0" y="-25.0" type="curve" smooth="yes"/>
      <point x="750.0" y="-25.0"/>
      <point x="934.0" y="145.0"/>
      <point x="934.0" y="403.0" type="curve" smooth="yes"/>
      <point x="934.0" y="704.0"/>
      <point x="779.0" y="842.0"/>
      <point x="555.0" y="842.0" type="curve" smooth="yes"/>
      <point x="459.0" y="842.0"/>
      <point x="344.0" y="783.0"/>
      <point x="268.0" y="689.0" type="curve"/>
      <point x="272.0" y="1065.0"/>
      <point x="415.0" y="1187.0"/>
      <point x="583.0" y="1187.0" type="curve" smooth="yes"/>
      <point x="662.0" y="1187.0"/>
      <point x="739.0" y="1156.0"/>
      <point x="788.0" y="1098.0" type="curve"/>
      <point x="904.0" y="1231.0" type="line"/>
      <point x="827.0" y="1313.0"/>
      <point x="724.0" y="1367.0"/>
      <point x="571.0" y="1367.0" type="curve" smooth="yes"/>
      <point x="307.0" y="1367.0"/>
      <point x="63.0" y="1158.0"/>
      <point x="63.0" y="642.0" type="curve" smooth="yes"/>
      <point x="63.0" y="202.0"/>
      <point x="266.0" y="-25.0"/>
    </contour>
    <contour>
      <point x="526.0" y="144.0" type="curve" smooth="yes"/>
      <point x="389.0" y="144.0"/>
      <point x="285.0" y="281.0"/>
      <point x="272.0" y="527.0" type="curve"/>
      <point x="349.0" y="639.0"/>
      <point x="440.0" y="683.0"/>
      <point x="516.0" y="683.0" type="curve" smooth="yes"/>
      <point x="652.0" y="683.0"/>
      <point x="730.0" y="582.0"/>
      <point x="730.0" y="403.0" type="curve" smooth="yes"/>
      <point x="730.0" y="241.0"/>
      <point x="640.0" y="144.0"/>
    </contour>
  </outline>
</glyph>
<glyph name="th_na-deva" format="2">
  <advance width="1259.0"/>
  <anchor x="978.0" y="0.0" name="bottom"/>
  <anchor x="887.0" y="1287.0" name="candra"/>
  <anchor x="202.0" y="111.0" name="nukta"/>
  <anchor x="981.0" y="1287.0" name="top"/>
  <outline>
    <contour>
      <point x="460.0" y="-160.0" type="line"/>
      <point x="508.0" y="-124.0"/>
      <point x="528.0" y="-88.0"/>
      <point x="530.0" y="-55.0" type="curve" smooth="yes"/>
      <point x="532.0" y="-25.0"/>
      <point x="522.0" y="4.0"/>
      <point x="507.0" y="28.0" type="curve" smooth="yes"/>
      <point x="472.0" y="86.0" type="line"/>
      <point x="456.0" y="25.0" type="line"/>
      <point x="891.0" y="363.0" type="line"/>
      <point x="760.0" y="451.0" type="line"/>
      <point x="168.0" y="71.0" type="line"/>
      <point x="237.0" y="-68.0" type="line"/>
    </contour>
    <component base="tha-deva"/>
  </outline>
</glyph>
<glyph name="th_ra-deva" format="2">
  <advance width="718.0"/>
  <outline>
    <contour>
      <point x="431.0" y="-51.0" type="line"/>
      <point x="979.0" y="386.0" type="line"/>
      <point x="888.0" y="493.0" type="line"/>
      <point x="305.0" y="99.0" type="line"/>
    </contour>
    <component base="th-deva"/>
  </outline>
</glyph>
<glyph name="three.lf" format="2">
  <advance width="1042.0"/>
  <outline>
    <contour>
      <point x="489.0" y="-25.0" type="curve" smooth="yes"/>
      <point x="743.0" y="-25.0"/>
      <point x="939.0" y="122.0"/>
      <point x="939.0" y="356.0" type="curve" smooth="yes"/>
      <point x="939.0" y="532.0"/>
      <point x="820.0" y="650.0"/>
      <point x="666.0" y="677.0" type="curve"/>
      <point x="666.0" y="685.0" type="line"/>
      <point x="806.0" y="740.0"/>
      <point x="895.0" y="869.0"/>
      <point x="895.0" y="1017.0" type="curve" smooth="yes"/>
      <point x="895.0" y="1235.0"/>
      <point x="724.0" y="1367.0"/>
      <point x="481.0" y="1367.0" type="curve" smooth="yes"/>
      <point x="325.0" y="1367.0"/>
      <point x="200.0" y="1308.0"/>
      <point x="93.0" y="1210.0" type="curve"/>
      <point x="206.0" y="1074.0" type="line"/>
      <point x="285.0" y="1150.0"/>
      <point x="369.0" y="1192.0"/>
      <point x="471.0" y="1192.0" type="curve" smooth="yes"/>
      <point x="597.0" y="1192.0"/>
      <point x="673.0" y="1114.0"/>
      <point x="673.0" y="1001.0" type="curve" smooth="yes"/>
      <point x="673.0" y="877.0"/>
      <point x="588.0" y="754.0"/>
      <point x="328.0" y="754.0" type="curve"/>
      <point x="328.0" y="593.0" type="line"/>
      <point x="627.0" y="593.0"/>
      <point x="719.0" y="507.0"/>
      <point x="719.0" y="367.0" type="curve" smooth="yes"/>
      <point x="719.0" y="240.0"/>
      <point x="624.0" y="155.0"/>
      <point x="471.0" y="155.0" type="curve" smooth="yes"/>
      <point x="334.0" y="155.0"/>
      <point x="234.0" y="221.0"/>
      <point x="156.0" y="301.0" type="curve"/>
      <point x="50.0" y="160.0" type="line"/>
      <point x="140.0" y="58.0"/>
      <point x="279.0" y="-25.0"/>
    </contour>
  </outline>
</glyph>
<glyph name="three.tf" format="2">
  <advance width="1003.0"/>
  <outline>
    <contour>
      <point x="481.0" y="-179.0" type="curve" smooth="yes"/>
      <point x="729.0" y="-179.0"/>
      <point x="931.0" y="-31.0"/>
      <point x="931.0" y="205.0" type="curve" smooth="yes"/>
      <point x="931.0" y="383.0"/>
      <point x="812.0" y="502.0"/>
      <point x="658.0" y="539.0" type="curve"/>
      <point x="658.0" y="547.0" type="line"/>
      <point x="798.0" y="601.0"/>
      <point x="887.0" y="713.0"/>
      <point x="887.0" y="861.0" type="curve" smooth="yes"/>
      <point x="887.0" y="1079.0"/>
      <point x="718.0" y="1203.0"/>
      <point x="475.0" y="1203.0" type="curve" smooth="yes"/>
      <point x="319.0" y="1203.0"/>
      <point x="194.0" y="1141.0"/>
      <point x="86.0" y="1044.0" type="curve"/>
      <point x="200.0" y="908.0" type="line"/>
      <point x="279.0" y="984.0"/>
      <point x="363.0" y="1029.0"/>
      <point x="465.0" y="1029.0" type="curve" smooth="yes"/>
      <point x="591.0" y="1029.0"/>
      <point x="665.0" y="958.0"/>
      <point x="665.0" y="845.0" type="curve" smooth="yes"/>
      <point x="665.0" y="721.0"/>
      <point x="580.0" y="616.0"/>
      <point x="320.0" y="616.0" type="curve"/>
      <point x="320.0" y="454.0" type="line"/>
      <point x="619.0" y="454.0"/>
      <point x="711.0" y="356.0"/>
      <point x="711.0" y="217.0" type="curve" smooth="yes"/>
      <point x="711.0" y="87.0"/>
      <point x="610.0" y="0.0"/>
      <point x="463.0" y="0.0" type="curve" smooth="yes"/>
      <point x="326.0" y="0.0"/>
      <point x="226.0" y="64.0"/>
      <point x="148.0" y="144.0" type="curve"/>
      <point x="42.0" y="2.0" type="line"/>
      <point x="132.0" y="-99.0"/>
      <point x="271.0" y="-179.0"/>
    </contour>
  </outline>
</glyph>
<glyph name="tth_tth_ya-deva" format="2">
  <advance width="2286.0"/>
  <anchor x="2014.0" y="0.0" name="bottom"/>
  <anchor x="1608.0" y="1287.0" name="candra"/>
  <anchor x="2006.0" y="1287.0" name="top"/>
  <outline>
    <contour>
      <point x="1074.0" y="1104.0" type="line"/>
      <point x="2305.0" y="1104.0" type="line"/>
      <point x="2305.0" y="1287.0" type="line"/>
      <point x="1074.0" y="1287.0" type="line"/>
    </contour>
    <contour>
      <point x="1641.0" y="127.0" type="curve" smooth="yes"/>
      <point x="1770.0" y="127.0"/>
      <point x="1863.0" y="173.0"/>
      <point x="1944.0" y="257.0" type="curve"/>
      <point x="1956.0" y="513.0" type="line"/>
      <point x="1872.0" y="376.0"/>
      <point x="1744.0" y="319.0"/>
      <point x="1624.0" y="319.0" type="curve" smooth="yes"/>
      <point x="1500.0" y="319.0"/>
      <point x="1404.0" y="380.0"/>
      <point x="1368.0" y="526.0" type="curve"/>
      <point x="1351.0" y="448.0" type="line"/>
      <point x="1460.0" y="484.0"/>
      <point x="1619.0" y="549.0"/>
      <point x="1619.0" y="737.0" type="curve" smooth="yes"/>
      <point x="1619.0" y="926.0"/>
      <point x="1502.0" y="983.0"/>
      <point x="1299.0" y="983.0" type="curve" smooth="yes"/>
      <point x="711.0" y="982.0" type="line"/>
      <point x="722.0" y="807.0" type="line"/>
      <point x="1328.0" y="807.0" type="line" smooth="yes"/>
      <point x="1384.0" y="807.0"/>
      <point x="1427.0" y="792.0"/>
      <point x="1427.0" y="738.0" type="curve" smooth="yes"/>
      <point x="1427.0" y="661.0"/>
      <point x="1355.0" y="620.0"/>
      <point x="1170.0" y="575.0" type="curve"/>
      <point x="1221.0" y="289.0"/>
      <point x="1393.0" y="127.0"/>
    </contour>
    <contour>
      <point x="1917.0" y="0.0" type="line"/>
      <point x="2127.0" y="0.0" type="line"/>
      <point x="2127.0" y="1131.0" type="line"/>
      <point x="1917.0" y="1131.0" type="line"/>
    </contour>
    <component base="tth_ttha-deva"/>
  </outline>
</glyph>
<glyph name="two.tf" format="2">
  <advance width="1003.0"/>
  <outline>
    <contour>
      <point x="74.0" y="0.0" type="line"/>
      <point x="945.0" y="0.0" type="line"/>
      <point x="945.0" y="187.0" type="line"/>
      <point x="631.0" y="187.0" type="line" smooth="yes"/>
      <point x="567.0" y="187.0"/>
      <point x="483.0" y="180.0"/>
      <point x="413.0" y="173.0" type="curve"/>
      <point x="680.0" y="424.0"/>
      <point x="872.0" y="616.0"/>
      <point x="872.0" y="826.0" type="curve" smooth="yes"/>
      <point x="872.0" y="1058.0"/>
      <point x="717.0" y="1203.0"/>
      <point x="474.0" y="1203.0" type="curve" smooth="yes"/>
      <point x="298.0" y="1203.0"/>
      <point x="183.0" y="1135.0"/>
      <point x="67.0" y="1007.0" type="curve"/>
      <point x="189.0" y="888.0" type="line"/>
      <point x="261.0" y="968.0"/>
      <point x="342.0" y="1029.0"/>
      <point x="448.0" y="1029.0" type="curve" smooth="yes"/>
      <point x="587.0" y="1029.0"/>
      <point x="661.0" y="949.0"/>
      <point x="661.0" y="818.0" type="curve" smooth="yes"/>
      <point x="661.0" y="636.0"/>
      <point x="440.0" y="427.0"/>
      <point x="74.0" y="127.0" type="curve"/>
    </contour>
  </outline>
</glyph>
<glyph name="y_na-deva" format="2">
  <advance width="1164.0"/>
  <anchor x="883.0" y="0.0" name="bottom"/>
  <anchor x="753.0" y="1287.0" name="candra"/>
  <anchor x="196.0" y="34.0" name="nukta"/>
  <anchor x="883.0" y="1287.0" name="top"/>
  <outline>
    <contour>
      <point x="385.0" y="-160.0" type="line"/>
      <point x="433.0" y="-124.0"/>
      <point x="453.0" y="-88.0"/>
      <point x="455.0" y="-55.0" type="curve" smooth="yes"/>
      <point x="457.0" y="-25.0"/>
      <point x="447.0" y="4.0"/>
      <point x="432.0" y="28.0" type="curve" smooth="yes"/>
      <point x="397.0" y="86.0" type="line"/>
      <point x="381.0" y="25.0" type="line"/>
      <point x="816.0" y="363.0" type="line"/>
      <point x="685.0" y="451.0" type="line"/>
      <point x="93.0" y="71.0" type="line"/>
      <point x="162.0" y="-68.0" type="line"/>
    </contour>
    <component base="ya-deva"/>
  </outline>
</glyph>
<glyph name="yy_ra-deva" format="2">
  <advance width="1164.0"/>
  <anchor x="99.0" y="-201.0" name="bottom"/>
  <anchor x="523.0" y="1287.0" name="candra"/>
  <anchor x="196.0" y="34.0" name="nukta"/>
  <anchor x="883.0" y="1287.0" name="top"/>
  <outline>
    <contour>
      <point x="167.0" y="-74.0" type="line"/>
      <point x="736.0" y="345.0" type="line"/>
      <point x="655.0" y="452.0" type="line"/>
      <point x="47.0" y="79.0" type="line"/>
    </contour>
    <component base="ya-deva"/>
    <component base="nukta-deva" xOffset="272.0" yOffset="15.0"/>
  </outline>
</glyph>
<glyph name="zero.lf" format="2">
  <advance width="1135.0"/>
  <outline>
    <contour>
      <point x="568.0" y="-25.0" type="curve" smooth="yes"/>
      <point x="860.0" y="-25.0"/>
      <point x="1024.0" y="234.0"/>
      <point x="1024.0" y="673.0" type="curve" smooth="yes"/>
      <point x="1024.0" y="1112.0"/>
      <point x="860.0" y="1367.0"/>
      <point x="568.0" y="1367.0" type="curve" smooth="yes"/>
      <point x="275.0" y="1367.0"/>
      <point x="111.0" y="1114.0"/>
      <point x="111.0" y="673.0" type="curve" smooth="yes"/>
      <point x="111.0" y="234.0"/>
      <point x="275.0" y="-25.0"/>
    </contour>
    <contour>
      <point x="568.0" y="155.0" type="curve" smooth="yes"/>
      <point x="418.0" y="155.0"/>
      <point x="332.0" y="302.0"/>
      <point x="332.0" y="673.0" type="curve" smooth="yes"/>
      <point x="332.0" y="1045.0"/>
      <point x="418.0" y="1187.0"/>
      <point x="568.0" y="1187.0" type="curve" smooth="yes"/>
      <point x="716.0" y="1187.0"/>
      <point x="804.0" y="1045.0"/>
      <point x="804.0" y="673.0" type="curve" smooth="yes"/>
      <point x="804.0" y="302.0"/>
      <point x="716.0" y="155.0"/>
    </contour>
  </outline>
</glyph>
<glyph name="zero.tf" format="2">
  <advance width="1003.0"/>
  <outline>
    <contour>
      <point x="501.0" y="-25.0" type="curve" smooth="yes"/>
      <point x="768.0" y="-25.0"/>
      <point x="938.0" y="183.0"/>
      <point x="938.0" y="590.0" type="curve" smooth="yes"/>
      <point x="938.0" y="997.0"/>
      <point x="768.0" y="1203.0"/>
      <point x="501.0" y="1203.0" type="curve" smooth="yes"/>
      <point x="232.0" y="1203.0"/>
      <point x="65.0" y="997.0"/>
      <point x="65.0" y="590.0" type="curve" smooth="yes"/>
      <point x="65.0" y="183.0"/>
      <point x="232.0" y="-25.0"/>
    </contour>
    <contour>
      <point x="501.0" y="148.0" type="curve" smooth="yes"/>
      <point x="351.0" y="148.0"/>
      <point x="274.0" y="312.0"/>
      <point x="274.0" y="590.0" type="curve" smooth="yes"/>
      <point x="274.0" y="867.0"/>
      <point x="351.0" y="1030.0"/>
      <point x="501.0" y="1030.0" type="curve" smooth="yes"/>
      <point x="649.0" y="1030.0"/>
      <point x="728.0" y="867.0"/>
      <point x="728.0" y="590.0" type="curve" smooth="yes"/>
      <point x="728.0" y="312.0"/>
      <point x="649.0" y="148.0"/>
    </contour>
  </outline>
</glyph>
